{"glyphs":{"^":{"ha":6022,"x_min":56,"x_max":5994,"o":"m 79 890 q 85 910 88 897 q 83 929 83 922 q 103 949 89 946 q 131 949 117 953 q 158 936 146 944 q 175 921 171 928 q 208 888 192 907 q 240 846 224 868 q 272 802 256 824 q 303 764 288 781 q 380 690 340 725 q 458 619 419 654 q 535 546 497 583 q 604 464 572 508 l 858 172 l 863 168 q 861 198 861 183 q 860 228 861 213 q 856 245 854 236 q 858 264 858 254 q 856 564 858 418 q 854 864 854 710 q 854 883 854 874 q 857 900 854 892 l 864 892 q 865 913 867 903 q 864 932 864 922 q 868 946 864 939 q 875 960 872 953 l 886 972 q 914 961 904 968 q 931 946 924 954 q 943 927 938 938 q 957 906 949 917 q 962 885 961 899 q 963 865 963 872 q 961 820 963 842 q 960 776 960 799 q 963 731 960 753 q 965 686 965 708 q 963 563 965 624 q 960 440 960 503 q 957 357 960 399 q 954 275 954 315 q 956 192 954 236 q 958 108 958 147 q 946 64 958 81 q 951 46 947 54 q 953 28 956 38 q 937 18 949 18 q 912 22 925 18 q 888 33 899 26 q 875 40 878 39 q 853 60 863 49 q 836 83 844 71 q 819 108 828 96 q 797 128 810 119 q 770 153 796 128 q 703 219 744 178 q 608 313 661 260 q 497 421 554 365 q 385 531 440 476 q 286 631 331 586 q 212 708 242 676 q 175 749 182 739 q 172 728 172 738 q 172 708 172 718 q 174 590 172 649 q 175 471 175 531 q 170 260 175 365 q 165 49 165 154 q 144 17 165 31 q 107 4 124 4 q 81 15 93 4 q 64 51 69 25 q 61 27 57 36 q 65 7 65 18 q 63 0 65 1 q 56 26 56 8 q 63 189 56 108 q 69 351 69 269 q 65 535 69 443 q 61 718 60 626 l 63 751 l 64 757 l 68 751 q 69 726 68 739 q 72 700 69 713 q 74 716 74 708 q 74 731 74 724 q 72 769 74 750 q 71 808 71 789 q 70 845 71 828 q 69 882 69 863 q 68 894 69 889 q 65 906 67 899 q 66 910 64 908 q 71 907 68 913 l 79 890 m 1419 603 q 1452 599 1433 603 q 1489 594 1471 594 q 1542 578 1514 594 q 1596 536 1571 561 q 1640 482 1621 511 q 1664 428 1658 453 q 1752 255 1717 349 q 1815 71 1788 161 q 1832 36 1819 57 q 1844 4 1844 15 q 1840 -12 1844 -3 q 1828 -26 1835 -21 q 1810 -10 1815 -19 q 1785 8 1799 -4 q 1765 29 1772 19 q 1735 74 1753 44 q 1698 138 1718 103 q 1658 213 1678 174 q 1622 288 1639 251 q 1603 338 1617 301 q 1572 415 1589 375 q 1538 485 1556 454 q 1507 515 1521 515 q 1476 513 1492 515 q 1444 510 1461 510 q 1378 485 1411 510 q 1319 422 1346 461 q 1276 334 1293 383 q 1260 236 1260 285 q 1278 156 1260 185 q 1327 112 1297 126 q 1397 94 1357 97 q 1478 90 1436 90 q 1542 97 1510 90 q 1607 104 1574 104 q 1622 101 1611 104 q 1633 103 1625 103 q 1643 93 1643 103 q 1627 72 1643 76 q 1597 67 1611 67 q 1572 60 1583 67 q 1550 46 1561 53 q 1515 34 1533 36 q 1478 32 1497 32 q 1458 27 1467 32 q 1440 22 1450 22 q 1340 29 1392 22 q 1246 57 1289 36 q 1176 117 1203 78 q 1149 221 1149 156 q 1176 382 1149 304 q 1264 518 1204 460 q 1333 576 1297 550 q 1419 603 1369 603 m 1393 283 q 1408 325 1393 310 q 1449 340 1424 340 q 1489 325 1474 340 q 1504 283 1504 310 q 1489 243 1504 258 q 1449 228 1474 228 q 1408 243 1424 228 q 1393 283 1393 258 m 2601 446 q 2604 414 2603 431 q 2603 382 2606 397 q 2602 364 2601 372 q 2604 346 2603 356 q 2600 300 2607 324 q 2599 288 2597 293 q 2599 276 2600 282 q 2594 249 2596 263 q 2596 224 2593 236 q 2595 169 2600 200 q 2585 115 2590 139 q 2581 96 2582 106 q 2579 76 2581 86 q 2578 68 2579 69 q 2571 54 2571 61 q 2569 40 2571 47 q 2558 10 2567 25 q 2551 -21 2550 -6 q 2551 -28 2553 -25 q 2550 -37 2549 -32 q 2546 -40 2553 -40 q 2539 -47 2536 -37 q 2539 -52 2539 -50 q 2536 -57 2539 -54 q 2533 -48 2533 -53 q 2529 -37 2532 -43 q 2524 -4 2524 -21 q 2525 31 2524 13 q 2526 56 2526 43 q 2528 83 2526 69 q 2530 104 2531 94 q 2533 124 2529 114 q 2534 131 2535 126 q 2533 138 2533 135 q 2535 181 2533 160 q 2539 224 2538 201 q 2541 265 2539 244 q 2543 308 2543 286 q 2545 349 2544 328 q 2543 390 2546 369 q 2535 443 2542 415 q 2532 460 2532 451 q 2529 475 2532 468 q 2517 504 2525 490 q 2496 528 2510 518 q 2473 540 2485 535 q 2447 540 2461 546 q 2407 522 2424 533 q 2344 477 2375 503 q 2283 428 2313 451 q 2285 403 2285 418 q 2287 371 2286 388 q 2288 339 2288 354 q 2288 314 2288 324 q 2288 278 2289 296 q 2288 242 2288 261 q 2285 226 2288 232 q 2283 212 2282 219 q 2283 196 2283 204 q 2282 185 2282 190 q 2281 174 2282 181 q 2274 161 2281 165 q 2269 151 2269 160 q 2269 138 2269 144 q 2269 124 2268 131 q 2268 118 2272 118 q 2254 125 2261 117 q 2242 145 2247 133 q 2232 169 2236 157 q 2228 185 2228 181 q 2224 219 2228 203 q 2221 253 2219 235 q 2219 320 2224 288 q 2211 388 2214 353 q 2206 423 2210 401 q 2196 458 2201 444 q 2185 485 2190 472 q 2171 511 2179 499 q 2162 520 2167 517 q 2151 526 2157 524 q 2131 532 2140 535 q 2113 528 2122 529 q 2094 522 2101 526 q 2076 515 2086 518 q 2057 505 2065 511 q 2042 492 2049 499 q 2022 476 2036 486 q 1994 453 2008 465 q 1967 430 1979 440 q 1953 414 1956 419 q 1946 406 1951 411 q 1932 371 1929 393 q 1933 310 1936 343 q 1933 282 1932 296 q 1935 254 1933 268 q 1937 188 1936 221 q 1939 122 1938 156 q 1940 76 1940 99 q 1942 31 1940 54 q 1940 20 1942 25 q 1942 8 1939 15 q 1938 3 1942 3 q 1918 0 1931 4 q 1897 -1 1906 -4 q 1889 7 1889 1 q 1885 15 1889 11 q 1876 21 1881 18 q 1872 28 1872 25 q 1865 56 1869 43 q 1857 83 1861 69 q 1854 103 1854 93 q 1853 122 1854 113 q 1849 191 1850 157 q 1846 261 1847 225 q 1844 336 1844 299 q 1844 413 1843 374 q 1851 477 1846 444 q 1872 540 1857 510 q 1882 555 1876 549 q 1894 568 1888 561 q 1906 569 1896 569 q 1917 571 1911 571 q 1936 579 1928 568 q 1944 579 1940 583 q 1950 546 1957 565 q 1947 514 1946 529 q 1954 511 1947 507 q 1964 519 1961 514 q 1972 526 1967 524 q 1975 528 1975 528 q 2010 549 1994 536 q 2046 571 2026 563 q 2067 581 2057 576 q 2090 588 2078 585 q 2120 595 2106 590 q 2150 600 2135 600 q 2201 590 2179 600 q 2238 563 2224 579 q 2261 531 2253 547 q 2274 501 2269 514 q 2307 531 2286 514 q 2351 564 2328 549 q 2397 590 2374 579 q 2438 603 2419 601 q 2501 592 2472 604 q 2552 559 2531 581 q 2587 508 2574 538 q 2601 446 2600 479 m 4600 603 q 4633 599 4614 603 q 4669 594 4651 594 q 4723 578 4694 594 q 4776 536 4751 561 q 4820 482 4801 511 q 4844 428 4839 453 q 4933 255 4897 349 q 4996 71 4968 161 q 5013 36 5000 57 q 5025 4 5025 15 q 5020 -12 5025 -3 q 5008 -26 5015 -21 q 4990 -10 4996 -19 q 4966 8 4979 -4 q 4946 29 4953 19 q 4916 74 4933 44 q 4878 138 4899 103 q 4839 213 4858 174 q 4803 288 4819 251 q 4783 338 4797 301 q 4753 415 4769 375 q 4719 485 4736 454 q 4688 515 4701 515 q 4657 513 4672 515 q 4625 510 4642 510 q 4559 485 4592 510 q 4500 422 4526 461 q 4457 334 4474 383 q 4440 236 4440 285 q 4459 156 4440 185 q 4508 112 4478 126 q 4577 94 4538 97 q 4658 90 4617 90 q 4722 97 4690 90 q 4788 104 4754 104 q 4803 101 4792 104 q 4814 103 4806 103 q 4824 93 4824 103 q 4808 72 4824 76 q 4778 67 4792 67 q 4753 60 4764 67 q 4731 46 4742 53 q 4696 34 4714 36 q 4658 32 4678 32 q 4639 27 4647 32 q 4621 22 4631 22 q 4521 29 4572 22 q 4426 57 4469 36 q 4356 117 4383 78 q 4329 221 4329 156 q 4357 382 4329 304 q 4444 518 4385 460 q 4514 576 4478 550 q 4600 603 4550 603 m 4574 283 q 4589 325 4574 310 q 4629 340 4604 340 q 4669 325 4654 340 q 4685 283 4685 310 q 4669 243 4685 258 q 4629 228 4654 228 q 4589 243 4604 228 q 4574 283 4574 258 m 3738 614 l 3758 614 q 3768 611 3763 614 q 3774 610 3771 610 q 3779 608 3776 611 q 3786 601 3782 606 q 3789 592 3790 597 q 3784 581 3788 585 q 3776 572 3781 576 q 3769 571 3775 571 q 3759 572 3764 571 q 3749 571 3754 572 q 3706 556 3729 567 q 3668 535 3683 544 q 3655 525 3664 532 q 3636 510 3646 518 q 3617 492 3626 501 q 3604 476 3608 483 q 3599 459 3600 469 q 3601 442 3599 449 q 3620 413 3606 428 q 3653 382 3635 397 q 3689 351 3671 367 q 3718 321 3707 336 q 3723 315 3721 318 q 3728 308 3725 311 q 3733 300 3731 303 q 3739 294 3738 299 q 3744 289 3742 292 q 3749 283 3746 286 l 3753 275 q 3758 268 3756 271 q 3763 263 3760 265 q 3772 244 3765 258 q 3785 213 3778 231 q 3797 178 3792 196 q 3801 147 3801 160 q 3802 129 3801 133 q 3799 113 3803 125 q 3794 101 3796 107 q 3790 90 3793 96 q 3782 76 3789 83 q 3772 65 3775 69 q 3767 57 3769 60 q 3754 44 3760 50 q 3742 36 3749 39 q 3733 32 3738 33 q 3726 28 3729 31 q 3707 14 3718 19 q 3685 6 3696 7 q 3634 -2 3661 -1 q 3588 -8 3607 -3 q 3569 -10 3585 -10 q 3535 -12 3553 -11 q 3502 -12 3517 -12 q 3485 -11 3488 -12 q 3475 -9 3479 -8 q 3465 -10 3471 -10 q 3432 -2 3442 -8 q 3407 7 3422 4 q 3385 16 3396 10 q 3381 36 3375 22 q 3385 48 3383 43 q 3388 60 3388 53 q 3392 67 3388 64 q 3400 72 3396 71 q 3408 75 3403 75 q 3417 75 3413 75 q 3435 67 3429 72 q 3450 57 3440 63 q 3490 49 3472 47 q 3498 49 3494 47 q 3506 50 3501 50 q 3516 50 3507 49 q 3528 53 3525 51 q 3531 54 3529 53 q 3536 56 3535 54 q 3550 58 3546 56 l 3553 58 q 3563 61 3557 58 q 3571 61 3567 60 q 3579 64 3575 63 l 3586 64 q 3600 67 3593 64 q 3614 71 3607 71 q 3635 79 3626 71 q 3642 82 3639 79 q 3665 90 3649 82 q 3688 106 3681 99 q 3693 110 3690 108 q 3699 114 3696 111 q 3703 119 3701 117 q 3708 125 3706 122 q 3723 144 3717 135 q 3729 167 3729 153 q 3719 202 3729 186 q 3697 232 3710 218 q 3653 280 3675 256 q 3607 326 3631 304 q 3574 358 3589 343 q 3546 393 3558 374 q 3534 412 3539 403 q 3528 432 3529 421 q 3526 462 3525 444 q 3539 503 3528 479 q 3569 539 3549 522 q 3607 569 3590 556 q 3610 572 3607 569 q 3626 581 3617 576 q 3642 589 3635 586 q 3658 593 3651 589 q 3674 601 3665 597 q 3682 604 3679 604 q 3710 609 3697 606 q 3738 614 3722 613 m 4111 779 q 4140 757 4131 765 q 4149 722 4149 749 q 4151 681 4149 701 q 4154 640 4154 661 q 4151 617 4154 629 q 4147 593 4149 606 l 4147 579 q 4183 583 4163 578 q 4224 588 4203 588 q 4247 588 4229 588 q 4283 587 4264 588 q 4317 585 4301 586 q 4335 581 4332 583 q 4319 572 4328 574 q 4301 568 4310 571 l 4343 568 q 4360 570 4351 568 q 4378 572 4368 572 q 4397 569 4383 572 l 4403 564 q 4372 553 4393 560 q 4326 540 4350 546 q 4281 528 4303 533 q 4247 519 4258 522 q 4226 515 4240 518 q 4194 510 4211 513 q 4163 505 4178 507 q 4143 503 4149 503 q 4131 492 4133 501 q 4126 475 4128 482 q 4119 423 4124 451 q 4110 364 4114 394 q 4103 304 4106 333 q 4100 251 4100 275 q 4101 207 4100 235 q 4107 152 4101 179 q 4126 106 4113 125 q 4164 86 4139 86 q 4217 92 4190 86 q 4271 104 4244 97 q 4292 113 4282 107 q 4313 119 4301 119 q 4322 104 4335 119 q 4292 75 4313 93 q 4247 40 4272 57 q 4192 10 4221 22 q 4133 -3 4163 -3 q 4080 9 4101 -3 q 4050 28 4058 21 q 4008 114 4017 63 q 4000 210 4000 165 q 4005 272 4000 242 q 4014 335 4010 303 q 4020 368 4017 349 q 4027 407 4024 388 q 4033 446 4031 426 q 4035 479 4035 465 q 4027 497 4038 496 q 4010 500 4017 499 q 3968 502 3982 504 q 3926 500 3954 500 q 3898 501 3917 500 q 3862 506 3879 503 q 3831 517 3844 510 q 3818 536 3818 524 q 3831 563 3818 556 q 3854 572 3843 569 q 3924 583 3885 579 q 3988 588 3963 588 q 4018 586 4010 588 q 4049 585 4026 585 q 4065 599 4058 585 q 4074 633 4071 614 q 4079 672 4078 653 q 4081 699 4081 690 q 4084 724 4081 711 q 4088 750 4088 736 l 4090 754 l 4099 746 l 4103 746 q 4108 753 4108 746 q 4107 764 4108 761 l 4111 769 l 4111 779 m 2935 603 q 2967 599 2949 603 q 3004 594 2986 594 q 3058 578 3029 594 q 3111 536 3086 561 q 3155 482 3136 511 q 3179 428 3174 453 q 3267 255 3232 349 q 3331 71 3303 161 q 3347 36 3335 57 q 3360 4 3360 15 q 3355 -12 3360 -3 q 3343 -26 3350 -21 q 3325 -10 3331 -19 q 3301 8 3314 -4 q 3281 29 3288 19 q 3251 74 3268 44 q 3213 138 3233 103 q 3174 213 3193 174 q 3138 288 3154 251 q 3118 338 3132 301 q 3088 415 3104 375 q 3053 485 3071 454 q 3022 515 3036 515 q 2992 513 3007 515 q 2960 510 2976 510 q 2894 485 2926 510 q 2835 422 2861 461 q 2792 334 2808 383 q 2775 236 2775 285 q 2794 156 2775 185 q 2842 112 2813 126 q 2912 94 2872 97 q 2993 90 2951 90 q 3057 97 3025 90 q 3122 104 3089 104 q 3138 101 3126 104 q 3149 103 3140 103 q 3158 93 3158 103 q 3142 72 3158 76 q 3113 67 3126 67 q 3088 60 3099 67 q 3065 46 3076 53 q 3031 34 3049 36 q 2993 32 3013 32 q 2974 27 2982 32 q 2956 22 2965 22 q 2856 29 2907 22 q 2761 57 2804 36 q 2691 117 2718 78 q 2664 221 2664 156 q 2692 382 2664 304 q 2779 518 2719 460 q 2849 576 2813 550 q 2935 603 2885 603 m 2908 283 q 2924 325 2908 310 q 2964 340 2939 340 q 3004 325 2989 340 q 3019 283 3019 310 q 3004 243 3019 258 q 2964 228 2989 228 q 2924 243 2939 228 q 2908 283 2908 258 m 5179 779 q 5208 757 5199 765 q 5217 722 5217 749 q 5219 681 5217 701 q 5222 640 5222 661 q 5219 617 5222 629 q 5215 593 5217 606 l 5215 579 q 5251 583 5231 578 q 5292 588 5271 588 q 5315 588 5297 588 q 5351 587 5332 588 q 5385 585 5369 586 q 5403 581 5400 583 q 5387 572 5396 574 q 5369 568 5378 571 l 5411 568 q 5428 570 5419 568 q 5446 572 5436 572 q 5465 569 5451 572 l 5471 564 q 5440 553 5461 560 q 5394 540 5418 546 q 5349 528 5371 533 q 5315 519 5326 522 q 5294 515 5308 518 q 5263 510 5279 513 q 5231 505 5246 507 q 5211 503 5217 503 q 5199 492 5201 501 q 5194 475 5196 482 q 5187 423 5192 451 q 5178 364 5182 394 q 5171 304 5174 333 q 5168 251 5168 275 q 5169 207 5168 235 q 5175 152 5169 179 q 5194 106 5181 125 q 5232 86 5207 86 q 5285 92 5258 86 q 5339 104 5313 97 q 5360 113 5350 107 q 5381 119 5369 119 q 5390 104 5403 119 q 5360 75 5381 93 q 5315 40 5340 57 q 5260 10 5289 22 q 5201 -3 5231 -3 q 5148 9 5169 -3 q 5118 28 5126 21 q 5076 114 5085 63 q 5068 210 5068 165 q 5073 272 5068 242 q 5082 335 5078 303 q 5088 368 5085 349 q 5095 407 5092 388 q 5101 446 5099 426 q 5103 479 5103 465 q 5095 497 5106 496 q 5078 500 5085 499 q 5036 502 5050 504 q 4994 500 5022 500 q 4966 501 4985 500 q 4930 506 4947 503 q 4899 517 4913 510 q 4886 536 4886 524 q 4899 563 4886 556 q 4922 572 4911 569 q 4992 583 4953 579 q 5056 588 5031 588 q 5086 586 5078 588 q 5117 585 5094 585 q 5133 599 5126 585 q 5142 633 5139 614 q 5147 672 5146 653 q 5149 699 5149 690 q 5152 724 5149 711 q 5156 750 5156 736 l 5158 754 l 5167 746 l 5171 746 q 5176 753 5176 746 q 5175 764 5176 761 l 5179 769 l 5179 779 m 5865 536 q 5862 518 5865 529 q 5853 496 5858 507 q 5787 343 5818 419 q 5732 188 5756 267 q 5722 171 5724 182 q 5719 149 5719 160 q 5715 129 5718 139 q 5703 115 5713 119 l 5700 111 q 5715 94 5703 103 q 5744 77 5728 85 q 5777 64 5761 69 q 5801 58 5793 58 q 5839 62 5821 58 q 5875 69 5857 65 q 5911 74 5893 72 q 5947 72 5929 75 q 5958 78 5953 75 q 5971 82 5964 82 q 5986 76 5979 82 q 5993 64 5993 71 q 5969 35 5993 47 q 5913 15 5946 22 q 5844 5 5879 8 q 5785 1 5808 1 q 5644 26 5707 1 q 5536 96 5581 51 q 5468 203 5492 140 q 5444 340 5444 265 q 5482 475 5444 418 q 5576 565 5519 532 q 5701 603 5633 597 q 5831 582 5769 608 q 5853 568 5842 578 q 5865 536 5865 558 m 5710 321 q 5735 386 5722 357 q 5758 440 5747 415 q 5777 484 5769 464 q 5785 522 5785 504 q 5627 474 5688 519 q 5567 332 5567 429 q 5574 270 5567 301 q 5592 211 5581 239 q 5621 162 5604 183 q 5658 129 5638 140 q 5666 178 5661 157 q 5677 222 5671 200 q 5692 267 5683 243 q 5710 321 5700 290 z "},"\u0000":{"ha":0,"x_min":0,"x_max":0,"o":""},"\r":{"ha":347,"x_min":0,"x_max":0,"o":""}," ":{"ha":361,"x_min":0,"x_max":0,"o":""},"A":{"ha":883,"x_min":28,"x_max":872,"o":"m 557 890 q 576 839 569 865 q 592 786 582 813 q 626 697 604 751 q 675 579 649 643 q 729 448 701 515 q 780 319 757 381 q 817 208 803 257 q 832 131 832 158 q 837 108 832 125 q 849 72 842 90 q 863 35 856 53 q 872 8 869 17 l 849 0 q 838 18 842 8 q 822 32 833 28 l 815 29 q 775 92 793 60 q 743 161 757 125 q 732 183 739 175 q 714 233 726 210 q 690 282 701 257 q 598 494 643 388 q 517 711 553 600 q 502 751 510 731 q 483 790 494 771 q 419 667 443 732 q 367 539 396 601 q 322 454 347 494 q 285 367 297 414 q 264 331 272 350 q 247 293 256 313 q 169 153 214 219 q 74 25 125 86 l 65 22 l 60 22 q 33 10 46 22 l 29 8 l 33 22 l 29 26 l 28 32 q 38 55 32 42 q 51 83 44 68 q 62 110 57 97 q 67 133 67 124 q 79 159 67 135 q 112 224 92 183 q 158 319 132 265 q 210 433 183 374 q 262 556 236 493 q 307 676 288 618 q 347 778 325 728 q 385 853 369 829 q 399 876 390 861 q 419 909 408 892 q 442 944 431 926 q 461 975 453 963 q 474 990 468 986 q 494 989 479 993 q 517 969 511 985 q 529 939 522 954 q 542 914 535 926 q 557 890 550 901 m 533 290 q 513 242 533 263 q 465 222 493 222 q 418 242 438 222 q 399 290 399 263 q 418 338 399 318 q 465 357 438 357 q 513 338 493 357 q 533 290 533 318 z "},"B":{"ha":846,"x_min":69,"x_max":796,"o":"m 728 300 q 701 367 728 340 q 633 410 675 394 q 540 435 592 426 q 438 444 489 443 q 341 441 386 444 q 267 432 296 438 q 249 433 257 429 q 232 442 240 438 q 217 352 224 397 q 200 263 211 307 q 196 245 197 256 q 185 228 194 235 q 172 147 175 182 q 168 71 168 111 q 163 49 168 54 q 153 41 158 43 q 143 35 147 39 q 139 19 139 32 q 131 5 139 10 q 117 0 124 0 q 103 7 107 0 q 100 21 100 14 q 102 72 100 47 q 104 124 104 97 q 102 167 104 146 q 100 210 100 188 q 110 336 100 274 q 128 463 121 399 q 144 622 138 543 q 163 782 151 701 l 160 785 l 153 785 q 132 779 142 785 q 111 774 122 774 q 87 778 101 774 q 69 794 72 783 q 87 824 76 813 q 109 845 97 836 q 134 863 121 854 q 161 881 147 871 q 185 910 175 890 q 203 951 194 931 q 218 988 211 972 q 231 1003 225 1003 l 239 1003 q 250 1006 246 1003 q 260 1008 254 1008 q 274 1000 268 1008 q 279 985 279 992 q 274 972 279 978 q 289 944 281 953 q 408 947 349 953 q 516 916 468 940 q 594 848 564 892 q 624 738 624 804 q 603 658 624 697 q 545 588 583 619 q 451 532 507 556 q 326 497 396 508 l 364 513 q 519 511 442 522 q 658 472 596 500 q 758 401 719 444 q 796 303 796 358 q 770 228 796 264 q 703 160 744 192 q 611 104 663 129 q 508 62 560 79 q 409 35 457 44 q 329 25 361 25 q 311 35 318 25 l 307 36 q 294 34 300 35 q 281 33 288 33 q 260 46 267 33 l 254 49 q 241 44 247 46 q 228 42 235 42 q 217 44 225 42 q 200 49 208 46 q 185 56 192 53 q 179 64 179 60 q 181 69 179 67 q 182 72 182 71 q 287 98 231 89 q 396 122 343 107 q 480 149 425 129 q 590 193 535 168 q 687 246 646 218 q 728 300 728 274 m 388 867 q 359 863 376 867 q 324 853 342 860 q 292 838 307 847 q 274 817 278 828 q 263 772 267 799 q 259 717 260 746 q 259 662 258 689 q 260 614 260 635 q 249 567 260 590 q 240 521 239 544 q 260 536 250 531 q 322 556 288 551 q 386 572 356 561 q 447 598 417 583 q 501 632 476 613 q 540 678 525 651 q 554 739 554 704 q 538 792 554 768 q 496 832 521 815 q 442 858 471 849 q 388 867 413 867 z "},"C":{"ha":807,"x_min":69,"x_max":738,"o":"m 704 943 q 693 919 704 928 q 667 906 682 911 q 637 899 653 901 q 611 892 621 896 q 535 857 576 878 q 451 813 493 836 q 372 763 410 789 q 308 710 333 736 q 256 647 276 676 q 223 588 235 618 q 206 522 211 557 q 201 442 201 486 q 223 338 201 385 q 278 254 244 292 q 356 187 313 217 q 444 133 400 157 q 515 101 478 115 q 590 77 553 88 q 663 60 628 67 q 728 49 699 53 q 738 36 738 46 q 726 10 738 21 q 700 0 715 0 q 661 6 681 0 q 622 11 642 11 q 566 18 593 11 q 499 25 539 25 q 476 30 486 25 q 455 40 465 35 q 433 49 444 44 q 411 54 422 54 q 403 53 407 54 q 396 51 400 51 q 357 61 381 51 q 319 79 333 71 q 219 156 265 113 q 140 250 174 199 q 88 361 107 301 q 69 486 69 421 q 78 584 69 540 q 103 665 86 628 q 148 738 121 703 q 211 813 175 774 q 284 871 240 843 q 376 920 328 899 q 470 954 424 942 q 553 967 517 967 q 603 969 579 967 q 654 972 628 972 q 693 964 682 972 q 704 943 704 956 z "},"D":{"ha":910,"x_min":46,"x_max":839,"o":"m 713 456 q 714 469 715 463 q 713 483 713 476 q 715 505 713 494 q 718 526 718 515 q 715 556 718 539 q 708 590 713 574 q 697 622 703 607 q 683 647 690 638 q 667 668 675 658 q 660 692 660 678 q 654 703 660 696 q 642 718 649 711 q 628 732 635 725 q 617 742 621 739 q 435 847 533 808 q 229 886 336 886 q 174 879 201 886 q 117 872 146 872 q 87 858 101 865 q 54 850 72 850 q 47 860 47 850 q 46 875 46 871 q 59 901 46 892 q 83 918 72 910 q 81 922 86 919 q 76 929 69 925 q 106 949 92 940 q 138 964 121 958 q 221 982 178 976 q 308 988 264 988 q 442 971 375 988 q 571 924 508 954 q 687 849 633 893 q 779 751 740 806 q 823 670 807 714 q 839 579 839 626 q 835 526 839 551 q 826 483 832 501 q 779 358 804 411 q 722 260 754 304 q 644 177 689 217 q 538 94 600 138 q 506 72 524 85 q 468 50 488 60 q 428 33 449 40 q 390 26 408 26 q 350 18 369 26 q 311 8 331 10 l 297 21 q 267 7 282 14 q 235 0 251 0 q 207 3 221 0 q 178 6 193 6 l 174 6 l 164 4 l 158 4 q 142 12 149 4 q 125 19 136 19 q 112 13 117 19 q 100 7 107 7 q 96 11 94 7 q 124 39 101 24 q 169 57 146 54 q 159 171 169 115 q 142 285 149 226 q 125 589 125 438 q 126 649 125 604 q 131 741 126 693 q 146 826 136 789 q 172 863 156 863 l 174 863 q 191 849 183 851 q 203 844 199 847 q 211 835 208 842 q 214 807 214 828 q 218 797 214 800 q 222 788 222 794 q 220 741 222 764 q 218 694 218 718 q 220 648 218 671 q 225 601 222 625 q 233 580 233 592 q 233 557 233 568 q 240 391 233 474 q 247 225 246 308 q 245 205 247 208 q 240 201 243 201 q 235 196 238 200 q 235 175 233 192 q 241 132 238 153 q 244 89 244 111 q 236 68 244 79 q 250 63 242 63 q 334 82 288 63 q 429 133 381 101 q 525 206 478 165 q 611 291 572 247 q 677 378 650 335 q 713 456 704 421 z "},"E":{"ha":785,"x_min":69,"x_max":744,"o":"m 729 922 q 729 917 725 918 q 729 911 731 915 q 718 907 728 907 q 689 901 703 906 q 660 894 675 897 q 597 890 628 890 q 535 890 567 890 q 419 880 475 890 q 304 869 364 869 q 245 872 278 869 q 188 874 213 874 l 182 871 q 184 804 182 838 q 186 738 186 771 q 183 636 186 686 q 181 536 181 586 q 192 525 181 525 q 233 527 213 525 q 275 529 254 529 q 353 522 317 529 q 422 515 389 515 q 441 508 433 515 q 449 490 449 500 q 440 476 449 481 q 419 471 431 472 q 394 469 407 469 q 375 469 382 469 q 358 469 364 469 q 343 465 351 468 q 366 457 351 458 q 392 453 381 456 q 356 446 385 449 q 292 440 326 443 q 227 436 258 438 q 183 435 196 435 q 173 422 175 435 q 171 403 171 410 q 172 329 171 367 q 174 254 174 292 q 171 180 174 217 q 168 106 168 143 q 176 97 168 97 q 282 99 229 97 q 388 101 335 101 q 456 103 425 101 q 526 106 488 106 q 585 103 565 106 q 619 97 604 101 q 650 88 633 93 q 699 75 667 82 q 724 69 713 72 q 743 53 736 67 q 703 36 724 42 q 667 27 683 31 q 642 21 651 24 q 635 11 633 18 q 604 7 621 7 q 473 9 535 7 q 342 11 411 11 q 262 10 301 11 q 182 3 222 10 q 160 0 168 0 q 140 1 147 0 q 128 6 133 3 q 119 15 124 10 q 108 29 115 21 q 97 33 99 24 q 92 76 94 47 q 88 143 90 106 q 85 221 86 181 q 82 296 83 261 q 78 354 81 331 q 74 382 76 378 q 70 420 71 401 q 69 458 69 439 q 72 631 69 546 q 75 801 75 715 q 75 844 75 822 q 82 886 75 867 q 92 908 85 897 q 99 931 99 918 q 109 951 99 943 q 132 960 119 960 q 188 958 160 960 q 246 956 217 956 q 306 956 271 956 q 376 959 340 957 q 446 963 411 961 q 506 967 481 965 q 533 970 519 968 q 563 972 547 972 q 593 965 575 972 q 639 958 611 958 q 669 956 654 958 q 699 954 683 954 q 719 953 713 954 q 731 946 732 953 q 738 936 731 939 q 744 929 744 933 q 729 922 743 925 z "},"F":{"ha":710,"x_min":69,"x_max":696,"o":"m 154 42 q 144 58 151 53 q 131 67 138 63 q 119 78 124 71 q 114 100 114 86 q 108 119 114 108 q 97 181 97 150 q 89 243 96 213 q 73 346 76 294 q 69 450 69 397 q 74 679 69 565 q 78 908 78 793 q 85 934 78 922 q 92 961 92 946 q 96 994 92 978 q 106 997 100 997 q 115 997 111 997 q 127 1000 122 997 q 137 1004 132 1003 q 147 1004 142 1006 q 160 994 151 1003 q 176 977 167 985 q 199 969 186 969 q 261 965 231 969 q 323 953 292 960 q 385 942 354 947 q 447 938 415 938 l 632 938 q 647 936 636 938 q 668 933 657 935 q 688 927 679 931 q 696 919 696 924 q 687 899 696 906 q 666 888 678 892 q 642 883 654 885 q 624 875 631 881 q 571 842 596 853 q 521 825 546 831 q 469 819 496 819 q 410 818 442 818 q 311 828 358 818 q 254 846 283 833 q 196 858 225 858 q 194 832 192 843 q 197 806 197 821 q 195 751 197 778 q 193 696 193 724 q 195 588 193 642 q 197 479 197 533 q 205 474 197 475 q 222 472 213 472 q 240 472 231 471 q 251 472 249 472 q 288 476 271 472 q 325 479 306 479 q 360 476 336 479 q 408 468 383 472 q 453 460 433 464 q 475 457 472 457 q 480 440 490 454 q 447 424 469 426 q 398 413 422 421 q 349 398 374 406 q 300 384 325 390 q 250 378 275 378 q 227 380 239 378 q 203 382 215 382 q 197 369 197 382 q 197 354 197 357 q 199 293 197 331 q 201 232 201 256 q 199 212 201 221 q 196 192 196 203 q 197 133 196 163 q 200 74 197 104 q 176 47 193 58 l 158 42 l 154 42 z "},"G":{"ha":793,"x_min":57,"x_max":726,"o":"m 543 968 q 586 969 561 971 q 636 962 611 968 q 683 945 661 956 q 719 918 706 935 q 724 913 721 915 q 726 907 726 910 q 719 890 722 899 q 706 876 717 881 q 692 872 699 874 q 679 871 686 871 q 668 878 669 868 q 663 882 667 882 q 533 876 594 892 q 419 824 471 860 q 325 738 367 789 q 254 628 283 688 q 209 505 225 569 q 193 378 193 440 q 205 290 193 328 q 240 222 217 251 q 296 171 263 193 q 372 129 329 149 q 433 108 400 119 q 502 88 467 97 q 572 72 538 78 q 636 67 607 67 q 635 85 636 76 q 632 107 633 94 q 619 249 621 178 q 617 392 617 321 q 618 424 617 403 q 625 465 619 444 q 640 500 631 485 q 664 515 649 515 q 681 503 681 515 q 683 496 681 497 q 688 493 685 494 q 692 489 690 492 q 694 476 694 486 q 692 442 694 458 q 690 408 690 425 q 692 396 690 400 q 706 372 700 394 q 715 317 711 350 q 720 244 718 283 q 723 169 722 206 q 724 105 724 133 q 724 65 724 76 l 719 6 q 710 -25 719 -11 q 701 -54 701 -39 q 704 -65 701 -60 q 707 -76 707 -69 q 706 -79 707 -78 q 706 -83 706 -81 q 692 -74 699 -78 q 678 -62 685 -69 q 656 -33 661 -46 q 649 -12 650 -21 q 649 3 649 -3 q 643 11 649 8 q 615 16 635 15 q 560 17 596 17 q 461 22 514 17 q 356 40 408 28 q 256 72 303 51 q 172 121 208 92 q 122 178 143 144 q 85 248 100 211 q 64 324 71 285 q 57 400 57 364 q 95 599 57 504 q 200 771 133 694 q 355 899 267 847 q 543 968 443 950 z "},"H":{"ha":963,"x_min":71,"x_max":894,"o":"m 144 900 q 150 921 142 914 q 153 926 150 921 q 154 940 153 933 q 160 953 156 946 q 166 968 165 961 q 168 980 167 975 q 175 988 169 985 q 196 989 181 990 q 206 996 201 989 q 211 996 208 1000 q 215 997 215 990 q 218 1000 218 1000 q 221 997 221 1000 l 221 992 q 223 989 222 990 q 226 988 224 988 q 235 985 232 989 q 240 979 238 982 q 248 967 247 974 q 253 953 249 960 q 255 946 256 950 q 254 939 254 942 q 252 915 251 928 q 250 892 253 903 q 251 885 250 889 q 251 879 251 882 q 253 851 254 867 q 254 813 251 836 q 261 738 257 775 q 265 661 265 700 q 269 588 265 625 q 272 513 272 550 q 277 503 272 506 q 289 500 282 500 q 361 504 325 500 q 433 508 397 508 q 538 509 486 508 q 643 517 590 510 q 649 519 647 518 q 651 525 651 519 q 650 580 651 553 q 649 635 649 607 q 653 760 649 697 l 654 819 q 662 867 654 846 q 683 908 669 888 q 693 917 690 915 q 699 919 696 919 q 703 919 701 919 q 710 922 706 919 q 715 924 714 922 q 721 926 719 924 q 725 928 724 926 q 730 931 728 926 q 736 933 732 935 q 738 932 738 932 q 740 931 739 932 q 746 920 742 924 q 756 914 750 917 q 760 905 758 910 q 767 894 763 900 q 770 879 769 890 q 770 856 771 868 q 768 834 769 844 q 767 818 767 824 q 766 810 765 814 q 765 804 767 807 l 764 746 q 762 650 761 697 q 763 568 763 603 q 774 524 763 538 q 800 505 785 510 q 834 501 815 500 q 867 500 853 501 q 889 490 883 499 q 894 475 894 482 q 869 464 894 464 q 852 460 857 464 q 844 453 847 457 q 838 445 840 449 q 826 442 835 442 q 814 442 824 442 q 794 440 804 442 q 777 438 785 439 q 769 432 769 436 q 774 339 769 385 q 779 246 779 293 q 785 199 779 222 q 790 151 790 175 q 789 120 790 136 q 788 89 788 104 q 783 72 788 79 q 778 58 778 65 q 778 50 778 54 q 779 43 779 46 q 776 11 779 28 q 774 -25 774 -6 q 774 -36 774 -31 q 768 -43 774 -42 q 762 -41 765 -44 q 754 -37 758 -37 q 747 -40 750 -37 q 740 -43 744 -43 q 731 -31 733 -43 q 729 -12 729 -18 q 706 68 722 29 q 690 150 690 107 q 681 218 690 185 q 672 286 672 251 q 666 350 672 318 q 660 414 660 382 q 656 419 660 418 q 650 421 653 421 q 476 413 563 421 q 301 404 389 404 q 274 393 275 404 q 274 363 274 382 q 267 244 274 303 q 261 125 261 185 q 252 110 261 114 q 240 94 243 106 q 233 56 231 76 q 236 17 235 36 q 225 6 229 11 q 215 -4 221 1 q 206 12 210 -4 q 199 48 201 28 q 197 88 197 68 q 196 113 196 107 q 194 183 196 149 q 192 254 192 218 q 188 349 192 317 q 178 397 185 382 q 160 413 171 411 q 136 418 150 415 q 106 429 122 421 q 71 465 90 438 l 72 468 q 88 480 85 471 q 108 489 92 489 q 140 490 124 489 q 171 493 156 492 q 172 513 172 497 q 169 548 171 529 q 165 584 167 567 q 164 607 164 601 q 156 717 160 663 q 149 826 151 772 q 147 863 149 846 q 144 900 146 881 z "},"I":{"ha":263,"x_min":76,"x_max":193,"o":"m 83 107 q 85 158 83 132 q 88 210 88 183 q 85 265 88 238 q 82 319 82 292 q 85 403 82 361 q 88 488 88 446 l 88 611 q 86 641 88 619 q 83 692 85 663 q 78 755 81 721 q 76 822 76 789 q 77 880 76 853 q 81 928 78 907 q 92 961 85 949 q 108 974 99 974 q 124 969 114 974 q 142 957 133 964 q 158 942 151 950 q 164 928 164 935 q 175 842 164 883 q 190 756 186 800 q 191 742 190 749 q 192 728 192 735 q 192 626 192 678 q 193 525 193 575 q 192 474 193 508 q 188 396 190 439 q 181 308 185 353 q 175 224 178 263 q 169 159 172 185 q 164 129 167 133 q 159 123 161 122 q 150 124 157 124 q 142 109 143 124 q 139 76 140 94 q 136 44 138 58 q 128 31 135 31 l 118 31 q 101 23 106 31 q 95 5 96 15 q 95 -17 94 -6 q 96 -36 96 -28 q 96 -45 96 -40 q 94 -56 96 -50 q 89 -61 92 -64 q 86 -53 86 -58 q 85 27 86 -12 q 83 107 83 67 z "},"J":{"ha":413,"x_min":6,"x_max":371,"o":"m 71 57 q 133 85 104 65 q 183 131 161 104 q 219 189 206 157 q 238 256 233 221 q 245 335 242 293 q 250 420 249 378 q 251 505 251 463 q 247 585 250 547 q 233 735 240 660 q 233 883 225 811 q 269 965 240 938 q 289 977 281 976 q 305 976 297 978 q 317 969 313 974 q 324 965 322 965 q 340 971 329 965 q 347 933 347 956 q 343 892 346 910 q 347 812 339 851 q 357 732 354 772 q 368 523 365 635 q 360 313 371 411 q 330 180 351 247 q 256 61 308 113 l 261 86 q 237 63 251 76 q 203 38 222 49 q 165 19 185 26 q 124 14 144 11 q 76 9 100 17 q 28 4 53 1 q 13 12 21 6 q 7 25 6 18 q 19 45 10 40 q 42 53 29 50 q 56 54 49 54 q 71 57 64 54 z "},"K":{"ha":828,"x_min":69,"x_max":815,"o":"m 607 932 q 614 935 610 935 q 617 929 618 935 q 609 917 615 922 q 603 904 603 911 q 604 899 603 901 q 607 893 606 896 q 566 833 599 868 q 492 761 533 799 q 406 688 450 724 q 332 624 363 651 q 277 572 304 600 q 225 517 250 543 q 356 426 288 474 q 492 329 425 379 q 625 224 560 279 q 747 110 690 169 q 780 78 761 96 q 808 44 799 60 q 814 26 813 38 q 803 17 815 14 q 760 37 781 21 q 715 53 740 53 q 679 68 700 53 q 640 89 658 83 l 643 75 q 642 67 643 68 q 636 68 640 67 q 567 110 607 79 q 483 179 526 140 q 393 260 439 218 q 306 338 347 303 q 232 397 265 374 q 179 419 199 419 q 174 408 175 419 q 174 393 174 396 q 166 324 174 357 q 158 260 158 292 q 162 172 158 215 q 165 83 165 128 q 162 66 165 78 q 154 40 158 54 q 145 15 150 26 q 138 0 140 4 l 126 6 l 121 6 l 115 14 q 119 27 115 21 q 124 40 124 33 q 121 50 124 44 l 117 54 q 111 47 113 51 q 110 39 110 43 l 106 33 l 103 39 q 102 60 101 50 q 103 81 103 69 l 99 86 q 93 75 92 83 q 88 67 94 67 q 84 74 85 67 q 83 85 83 82 q 80 133 83 108 q 76 181 76 157 q 74 247 76 214 q 72 314 72 281 q 74 602 72 458 q 69 892 76 746 q 74 903 69 901 q 83 892 79 906 q 90 910 92 900 q 89 931 89 919 q 92 944 89 939 q 100 951 96 949 q 108 958 104 954 q 113 967 111 961 q 122 972 118 972 q 147 960 136 972 q 164 932 157 949 q 174 899 171 915 q 178 871 178 882 q 176 842 178 856 q 175 814 175 828 q 176 787 175 800 q 178 760 178 774 q 176 718 178 739 q 175 676 175 697 q 176 634 175 656 q 181 592 176 613 q 231 634 201 607 q 295 692 261 661 q 365 756 329 724 q 433 817 400 789 q 518 878 474 851 q 607 932 563 904 z "},"L":{"ha":750,"x_min":69,"x_max":722,"o":"m 722 110 q 719 96 722 100 q 713 90 717 92 q 703 85 708 88 q 692 78 697 83 q 647 38 668 53 q 604 14 626 22 q 556 3 582 6 q 494 0 529 0 q 328 17 410 0 q 163 49 246 33 q 144 39 150 46 q 121 32 138 32 q 106 34 110 32 q 104 43 101 36 q 99 50 103 47 q 92 57 96 53 q 85 67 88 61 q 82 85 82 74 q 86 115 82 96 q 94 144 90 133 q 101 202 100 161 q 101 290 101 243 q 97 378 100 336 q 93 438 94 419 q 78 554 88 496 q 69 671 69 613 l 69 753 l 69 824 q 69 845 69 829 q 72 881 69 861 q 79 919 74 900 q 94 951 85 939 q 103 959 101 958 q 113 960 106 960 q 127 966 121 960 q 142 972 133 972 q 158 962 151 972 q 163 944 164 951 q 165 933 163 938 q 167 922 167 928 q 170 850 167 886 q 178 778 174 814 q 183 737 181 760 q 188 692 185 714 q 192 652 190 669 q 193 626 193 635 q 201 543 193 585 q 213 458 208 501 q 222 317 219 388 q 222 172 224 246 q 231 145 222 151 q 258 140 239 139 q 301 133 281 140 q 343 126 321 126 q 388 123 367 126 q 433 117 410 119 q 541 115 488 114 q 649 115 594 115 l 660 115 l 685 118 l 697 118 q 712 117 701 118 q 722 110 722 117 z "},"M":{"ha":1069,"x_min":69,"x_max":1011,"o":"m 882 882 q 889 888 886 886 q 900 903 896 894 q 911 917 904 911 q 957 939 940 940 q 981 924 974 938 q 992 891 989 911 q 997 854 994 871 q 996 840 997 846 q 996 826 993 833 q 1000 813 999 819 q 1005 749 1003 781 q 1006 686 1007 718 q 1006 658 1006 672 q 1008 631 1007 644 q 1008 614 1010 622 q 1008 599 1007 606 q 1008 548 1008 578 q 1010 499 1008 518 q 1008 460 1010 479 q 1007 422 1007 442 q 1007 390 1007 410 q 1008 350 1007 371 q 1009 310 1008 329 q 1010 278 1010 290 q 1010 251 1011 264 q 1008 225 1008 239 q 1008 124 1011 172 q 1004 25 1006 75 q 986 18 1004 6 q 985 4 986 8 q 975 -2 982 -3 q 961 6 968 -1 q 956 15 958 10 q 950 25 953 19 l 950 31 q 949 53 953 42 q 943 76 944 65 q 940 142 938 108 q 936 208 942 176 q 935 210 936 210 q 935 213 935 211 q 935 239 936 225 q 931 267 933 253 q 928 313 929 283 q 928 360 926 343 q 927 372 928 367 q 926 383 926 378 q 926 484 926 431 q 922 585 925 538 q 922 599 922 592 q 921 615 921 607 q 922 657 922 635 q 919 703 921 679 q 918 749 918 726 q 919 789 918 771 l 907 785 q 905 772 904 778 q 906 761 906 767 q 908 728 908 744 q 908 693 908 711 q 909 635 908 664 q 910 576 910 606 q 910 566 910 571 q 910 554 911 561 q 910 514 908 538 q 911 472 913 490 q 910 417 910 444 q 913 363 911 390 q 913 319 913 340 q 917 276 914 299 q 917 265 918 271 q 918 251 915 258 q 913 252 914 250 q 910 256 911 254 q 910 265 911 261 q 908 275 908 269 q 909 288 908 282 q 907 301 910 294 q 908 307 907 304 q 907 313 908 310 q 908 324 907 319 q 906 335 908 329 l 906 335 l 906 336 q 906 360 907 349 q 904 383 904 372 q 903 439 904 411 q 903 494 903 467 q 903 551 903 519 q 900 608 903 583 q 899 652 899 631 q 899 696 899 674 q 897 734 897 715 q 896 772 896 753 q 892 772 896 772 q 879 760 885 765 q 867 749 874 754 q 816 695 843 721 q 761 649 789 669 q 744 632 753 643 q 700 585 725 604 q 654 542 675 565 q 644 526 647 533 q 637 513 640 519 q 628 501 633 507 q 613 486 624 494 q 598 476 606 481 q 581 472 590 471 q 528 491 549 475 q 488 528 508 507 q 460 548 475 539 q 433 568 446 557 q 364 624 399 597 q 299 683 329 651 q 271 717 282 700 q 249 752 260 735 q 227 786 239 769 q 196 817 215 803 q 192 742 193 779 q 192 668 192 706 q 190 528 192 597 q 179 388 189 458 q 165 265 171 326 q 160 140 160 203 q 164 101 160 121 q 168 68 168 81 q 165 36 168 53 q 161 4 163 19 l 157 0 q 147 17 149 7 q 140 36 146 28 q 134 27 135 32 q 131 17 133 22 q 124 8 129 11 q 104 4 119 4 q 90 10 94 4 q 85 26 86 17 q 84 44 83 35 q 85 60 85 54 q 77 95 85 79 q 69 129 69 111 q 72 156 69 143 q 74 183 74 169 q 75 246 74 215 q 76 308 76 276 l 76 321 l 75 346 q 74 358 74 350 q 80 449 74 404 q 86 540 86 494 q 87 644 86 592 q 97 747 88 697 q 106 812 103 775 q 110 878 110 849 q 113 901 110 888 q 121 924 117 915 q 154 940 132 946 q 201 914 176 933 q 256 865 231 892 q 288 829 281 838 q 422 692 346 757 q 565 563 499 628 q 723 722 644 638 q 882 882 801 806 z "},"N":{"ha":1022,"x_min":56,"x_max":965,"o":"m 79 890 q 85 910 88 897 q 83 929 83 922 q 103 949 89 946 q 131 949 117 953 q 158 936 146 944 q 175 921 171 928 q 208 888 192 907 q 240 846 224 868 q 272 802 256 824 q 303 764 288 781 q 380 690 340 725 q 458 619 419 654 q 535 546 497 583 q 604 464 572 508 l 858 172 l 863 168 q 861 198 861 183 q 860 228 861 213 q 856 245 854 236 q 858 264 858 254 q 856 564 858 418 q 854 864 854 710 q 854 883 854 874 q 857 900 854 892 l 864 892 q 865 913 867 903 q 864 932 864 922 q 868 946 864 939 q 875 960 872 953 l 886 972 q 914 961 904 968 q 931 946 924 954 q 943 927 938 938 q 957 906 949 917 q 962 885 961 899 q 963 865 963 872 q 961 820 963 842 q 960 776 960 799 q 963 731 960 753 q 965 686 965 708 q 963 563 965 624 q 960 440 960 503 q 957 357 960 399 q 954 275 954 315 q 956 192 954 236 q 958 108 958 147 q 946 64 958 81 q 951 46 947 54 q 953 28 956 38 q 937 18 949 18 q 912 22 925 18 q 888 33 899 26 q 875 40 878 39 q 853 60 863 49 q 836 83 844 71 q 819 108 828 96 q 797 128 810 119 q 770 153 796 128 q 703 219 744 178 q 608 313 661 260 q 497 421 554 365 q 385 531 440 476 q 286 631 331 586 q 212 708 242 676 q 175 749 182 739 q 172 728 172 738 q 172 708 172 718 q 174 590 172 649 q 175 471 175 531 q 170 260 175 365 q 165 49 165 154 q 144 17 165 31 q 107 4 124 4 q 81 15 93 4 q 64 51 69 25 q 61 27 57 36 q 65 7 65 18 q 63 0 65 1 q 56 26 56 8 q 63 189 56 108 q 69 351 69 269 q 65 535 69 443 q 61 718 60 626 l 63 751 l 64 757 l 68 751 q 69 726 68 739 q 72 700 69 713 q 74 716 74 708 q 74 731 74 724 q 72 769 74 750 q 71 808 71 789 q 70 845 71 828 q 69 882 69 863 q 68 894 69 889 q 65 906 67 899 q 66 910 64 908 q 71 907 68 913 l 79 890 z "},"O":{"ha":999,"x_min":60,"x_max":942,"o":"m 460 14 q 326 29 396 14 q 197 88 256 44 q 99 209 138 132 q 60 410 60 286 q 78 517 60 464 q 126 619 96 569 q 198 714 157 669 q 283 795 239 758 q 374 858 328 832 q 463 896 421 883 q 442 913 447 897 q 447 943 436 928 q 475 963 457 957 q 513 969 493 969 q 553 965 533 969 q 589 951 574 960 q 599 949 594 949 q 627 938 610 947 q 663 919 644 929 q 699 897 682 908 q 724 879 715 886 q 824 781 782 832 q 891 678 865 729 q 929 576 917 626 q 942 481 942 526 q 898 309 942 393 q 785 159 854 225 q 631 53 717 93 q 460 14 544 14 m 881 436 q 878 450 881 443 q 876 464 876 457 q 880 497 876 483 q 878 542 883 510 q 863 583 876 553 q 833 645 850 613 q 795 706 815 678 q 758 740 775 735 q 765 727 763 733 q 772 711 768 721 q 736 756 757 731 q 692 804 715 782 q 643 842 668 826 q 594 857 618 857 q 583 853 586 857 q 576 847 579 850 q 567 840 572 843 q 553 836 563 836 q 521 828 546 836 q 464 803 496 819 q 397 765 432 788 q 335 715 363 743 q 274 649 304 685 q 222 572 244 613 q 184 488 199 532 q 169 399 169 444 q 247 164 169 251 q 479 76 324 76 q 572 98 524 76 q 665 149 619 119 q 746 213 710 179 q 800 271 782 246 q 821 303 807 281 q 848 350 835 325 q 871 399 861 375 q 881 436 881 424 z "},"P":{"ha":668,"x_min":74,"x_max":618,"o":"m 618 600 q 579 483 618 539 q 485 386 540 428 q 370 321 429 344 q 271 301 311 297 q 288 308 279 304 q 303 317 296 313 q 272 313 286 317 q 244 306 258 310 q 217 301 231 303 q 185 304 203 300 q 184 294 185 300 q 183 283 183 288 q 188 205 183 243 q 192 126 192 167 q 186 115 192 119 q 185 111 186 113 q 185 108 185 110 q 187 90 185 99 q 189 72 189 82 q 188 64 189 67 q 183 49 182 57 q 185 33 185 40 q 178 18 185 25 q 163 8 171 11 q 147 4 154 4 q 136 11 139 4 q 118 28 132 28 q 115 18 113 21 q 108 13 117 15 q 98 22 101 13 q 92 42 94 31 q 90 66 90 54 q 89 83 89 78 q 81 176 89 131 q 74 268 74 221 q 76 424 74 347 q 78 581 78 501 q 85 716 78 649 q 92 851 92 783 q 91 874 92 861 q 85 894 90 888 q 76 908 78 904 q 76 915 75 911 q 78 923 76 918 q 81 940 81 928 q 79 951 81 946 q 78 961 78 956 q 88 972 78 972 q 103 969 99 972 q 114 961 107 965 q 125 957 118 958 q 143 956 132 956 q 235 947 183 956 q 339 918 286 938 q 442 869 392 899 q 531 801 492 840 q 594 711 571 761 q 618 600 618 661 m 506 599 q 476 710 506 663 q 399 791 446 758 q 294 840 353 824 q 178 857 236 857 q 169 856 172 857 q 165 846 165 854 q 169 783 165 822 q 183 718 172 744 q 188 708 186 713 q 189 696 189 703 q 188 675 189 685 q 188 656 188 665 q 187 501 188 579 q 186 343 186 422 q 283 371 228 349 q 387 427 338 393 q 471 505 436 461 q 506 599 506 549 z "},"Q":{"ha":969,"x_min":57,"x_max":914,"o":"m 57 397 q 67 522 57 454 q 99 659 76 590 q 157 790 121 728 q 244 899 193 853 q 359 974 304 951 q 463 999 414 997 q 555 989 513 1001 q 632 957 597 976 q 730 892 692 925 q 794 821 768 860 q 840 735 821 782 q 881 625 860 688 l 878 617 q 885 601 882 608 q 890 585 889 593 l 883 578 q 899 563 893 574 q 908 539 904 553 q 913 512 911 525 q 914 490 914 499 q 908 467 914 478 q 901 446 901 457 q 892 347 900 392 q 866 264 885 303 q 816 191 847 225 q 739 124 785 157 q 758 92 742 115 q 794 44 774 69 q 834 -1 814 19 q 865 -28 854 -22 l 865 -35 l 864 -40 q 867 -48 865 -44 q 869 -56 868 -51 l 865 -65 l 857 -54 l 851 -54 q 849 -58 849 -57 q 852 -72 849 -65 q 856 -85 856 -78 q 842 -109 856 -97 q 807 -121 829 -121 q 806 -105 807 -111 q 803 -90 806 -99 q 799 -103 800 -97 q 796 -115 799 -108 q 777 -92 788 -110 q 756 -62 767 -74 q 727 -34 740 -50 q 701 -3 714 -18 q 673 26 688 13 q 639 44 658 39 q 528 -12 592 7 q 401 -32 465 -32 q 267 6 331 -32 q 158 104 204 43 q 84 242 111 165 q 57 397 57 319 m 182 393 q 195 276 182 335 q 239 169 208 217 q 317 91 269 121 q 433 61 365 61 q 479 64 454 61 q 526 72 504 67 q 564 88 549 78 q 579 111 579 97 q 576 125 579 118 q 568 139 572 132 q 553 158 565 143 q 529 194 542 174 q 506 235 517 214 q 496 271 496 257 q 500 303 496 294 q 512 314 504 311 q 531 321 519 317 q 557 339 542 325 q 562 347 560 342 q 568 351 564 351 q 576 342 576 351 q 589 356 581 344 q 597 345 594 353 q 600 332 600 338 q 606 310 600 319 q 618 292 611 300 q 631 274 625 283 q 636 254 636 265 q 651 221 636 242 q 682 185 667 200 q 703 182 694 175 q 719 196 708 189 q 740 207 725 203 q 756 218 756 211 l 760 222 q 781 240 775 226 q 797 261 786 254 l 803 271 q 814 298 804 286 q 828 325 824 310 q 836 379 836 350 q 836 436 836 408 q 822 524 836 475 q 783 623 808 572 q 725 722 758 674 q 653 807 692 769 q 570 867 614 844 q 483 890 526 890 q 373 859 419 890 q 292 778 326 828 q 237 670 258 729 q 203 556 215 611 q 187 456 192 500 q 182 393 182 413 z "},"R":{"ha":863,"x_min":94,"x_max":849,"o":"m 651 718 q 648 656 651 693 q 630 576 644 618 q 585 492 615 535 q 503 413 556 449 q 547 369 521 400 q 600 301 572 338 q 653 230 628 265 q 697 174 679 194 q 776 103 732 138 q 849 28 819 69 l 846 24 q 834 21 839 24 q 822 19 829 18 q 813 25 815 21 q 804 31 810 29 q 792 28 796 31 q 780 37 785 31 q 768 44 775 43 q 756 42 761 46 q 743 40 750 39 q 734 30 736 42 q 731 13 732 18 l 729 13 q 703 31 721 14 q 662 72 685 47 q 613 127 639 97 q 565 185 588 157 q 523 235 542 213 q 494 267 504 257 q 448 310 472 290 q 400 351 424 329 q 379 375 389 361 q 354 392 369 389 l 344 390 l 339 386 q 331 391 335 388 q 328 400 326 394 q 333 413 329 407 q 339 425 338 418 q 340 434 340 429 q 339 444 339 439 q 353 474 343 465 q 397 478 363 483 q 473 476 440 463 q 528 521 506 490 q 563 592 551 551 q 575 671 575 633 q 571 699 575 686 q 563 725 567 711 q 542 757 550 736 q 517 793 535 778 q 410 851 471 833 q 289 868 350 868 q 258 861 269 868 q 247 833 247 854 q 244 797 247 815 q 240 761 240 779 q 235 565 240 663 q 231 369 231 467 q 229 316 231 342 q 228 264 228 290 q 236 192 228 228 q 244 121 244 157 q 236 80 244 100 q 214 43 228 60 q 201 33 208 36 q 189 28 194 31 q 180 19 183 25 q 176 0 176 14 l 172 0 q 164 10 169 7 q 153 17 158 13 q 141 34 139 28 q 143 54 143 40 q 139 137 143 96 q 135 218 135 178 q 138 242 135 231 q 140 267 140 254 q 137 310 140 289 q 133 351 133 331 l 133 438 q 138 525 133 482 q 142 611 142 568 q 145 717 142 664 q 149 824 149 771 q 140 828 149 828 q 122 832 132 829 q 103 840 111 835 q 94 857 94 844 q 110 884 94 875 q 136 907 126 893 l 124 917 q 133 922 126 919 q 144 928 140 924 l 143 932 q 202 956 168 947 q 273 969 236 965 q 347 971 310 972 q 413 964 383 969 q 500 935 457 957 q 576 880 543 913 q 631 806 610 847 q 651 718 651 764 z "},"S":{"ha":936,"x_min":56,"x_max":878,"o":"m 735 876 q 726 860 735 868 q 710 858 718 858 q 694 858 701 858 q 656 865 675 858 q 618 876 638 871 q 560 888 590 885 q 501 890 531 890 q 398 878 449 890 q 299 844 347 865 q 247 824 272 843 q 202 776 221 804 q 172 717 183 749 q 160 661 160 686 q 160 657 160 658 q 161 654 161 656 q 167 640 165 646 q 172 631 169 635 q 179 623 175 626 q 192 614 183 619 q 206 603 199 610 q 221 592 213 597 q 261 580 239 582 q 303 574 283 578 q 325 565 308 569 q 361 558 342 561 q 398 551 381 554 q 424 549 415 549 q 437 546 426 546 q 453 543 447 546 q 467 540 460 539 q 587 513 522 531 q 710 464 651 494 q 814 390 768 433 q 876 285 860 346 q 877 275 876 283 q 878 264 878 267 q 844 167 878 210 q 760 93 810 125 q 653 40 710 61 q 554 7 597 18 q 539 2 547 4 q 521 0 531 0 l 513 0 l 518 4 l 518 10 q 508 11 515 11 q 497 7 501 11 l 494 7 q 482 10 486 10 q 415 6 449 10 q 349 1 382 1 q 313 7 336 1 q 265 21 290 13 q 216 38 239 29 q 182 51 193 46 l 182 53 q 154 70 167 57 q 135 96 142 83 q 126 110 126 101 q 131 129 126 119 l 132 129 q 161 135 149 136 l 171 143 l 175 144 q 260 115 221 121 q 350 108 299 108 q 554 129 454 108 q 739 215 654 150 q 766 247 756 229 q 776 288 776 265 q 733 350 776 325 q 621 394 689 375 q 471 428 553 413 q 313 466 389 444 q 178 518 238 488 q 96 594 119 549 q 80 619 89 607 q 68 647 71 632 q 66 658 67 653 q 60 668 65 664 q 56 683 57 675 q 56 697 56 690 q 58 749 56 722 q 76 796 60 776 q 87 808 83 803 q 94 821 90 814 q 137 870 107 849 q 194 900 167 892 l 196 900 q 341 951 267 931 q 493 972 415 972 q 531 970 513 972 q 568 968 549 968 q 630 953 601 968 q 690 932 658 939 q 703 924 693 925 q 719 924 713 924 l 725 924 l 735 935 q 737 928 738 932 q 735 922 736 925 l 739 918 l 726 901 l 732 893 q 735 876 735 882 z "},"T":{"ha":881,"x_min":29,"x_max":851,"o":"m 850 931 l 851 926 q 840 918 849 922 q 819 910 831 914 q 797 905 808 907 q 781 901 786 903 q 766 892 775 894 q 749 888 757 889 l 744 883 l 757 879 l 757 878 q 719 864 743 867 q 679 857 696 861 q 586 840 626 843 q 492 836 546 836 q 478 825 478 836 q 480 738 478 776 q 489 656 482 700 q 494 599 493 628 q 496 556 496 571 q 492 458 496 519 q 483 331 489 397 q 466 206 476 265 q 443 117 456 147 q 444 113 443 114 q 444 110 444 113 q 444 89 444 99 q 442 68 443 79 l 439 63 q 428 44 429 54 q 426 24 426 33 q 422 9 425 15 q 407 4 419 3 q 393 0 401 0 q 384 6 389 0 q 375 18 379 11 q 368 32 371 25 q 365 43 365 39 q 368 156 365 100 q 374 268 371 211 q 385 416 376 343 q 394 564 394 489 q 389 674 394 619 q 383 785 383 729 q 383 810 383 792 q 372 836 382 828 q 256 834 314 836 q 139 832 197 832 q 78 840 108 832 q 29 874 49 847 l 35 878 q 44 889 44 878 q 43 906 43 900 q 44 919 43 913 q 56 926 46 926 q 72 931 64 926 q 88 938 79 935 q 138 946 111 947 q 189 944 164 944 q 213 947 201 944 q 238 950 225 950 q 367 951 303 950 q 496 951 431 951 q 542 955 519 951 q 588 958 564 958 q 699 965 644 958 q 813 972 754 972 q 831 972 822 972 q 849 969 839 972 l 849 964 q 835 955 844 960 q 826 943 826 950 q 836 933 826 936 q 850 931 846 931 z "},"U":{"ha":879,"x_min":69,"x_max":808,"o":"m 743 903 q 792 710 775 814 q 808 511 808 606 q 796 408 808 464 q 761 298 783 353 q 708 192 739 243 q 638 101 676 140 q 556 38 600 61 q 464 14 511 14 q 456 7 456 14 q 449 0 456 0 q 311 35 369 0 q 211 127 253 71 q 143 251 169 183 q 101 385 117 319 q 88 469 92 428 q 76 556 83 511 q 70 621 71 588 q 69 686 69 654 q 72 740 69 714 q 75 794 75 767 q 81 801 75 801 q 88 807 88 800 q 81 812 88 813 q 75 818 75 811 q 95 842 75 831 q 140 849 115 854 q 153 845 150 846 q 158 845 157 844 q 163 847 160 846 q 172 847 165 847 q 187 828 181 847 q 197 785 193 810 q 202 738 200 761 q 204 704 204 714 q 206 646 204 676 q 210 588 207 615 q 219 502 214 551 q 235 401 225 453 q 263 298 246 349 q 306 207 279 247 q 369 142 332 167 q 457 118 406 118 q 510 132 482 118 q 563 166 538 146 q 610 210 589 186 q 643 253 632 233 q 687 343 671 299 q 710 433 703 388 q 718 526 718 478 q 714 625 718 574 q 696 758 708 688 q 660 886 683 828 q 647 913 654 900 q 636 940 640 925 l 643 951 l 639 961 q 644 969 639 967 q 653 972 649 972 q 666 968 660 972 q 678 960 672 964 l 682 963 q 699 963 690 963 q 715 964 707 964 l 718 963 q 738 935 729 953 q 743 903 746 918 z "},"V":{"ha":997,"x_min":22,"x_max":996,"o":"m 996 1015 q 988 1000 988 1011 q 989 994 988 999 q 992 988 990 989 q 984 972 989 981 q 971 957 979 964 q 903 887 938 925 q 844 810 868 849 q 806 753 828 783 q 761 689 783 722 q 719 619 739 656 q 690 544 700 582 l 692 544 q 752 640 724 599 q 821 719 781 681 l 825 721 l 824 717 q 728 587 765 658 q 660 440 692 515 q 638 382 653 422 q 605 295 622 342 q 572 205 588 249 q 547 138 556 161 q 537 107 543 129 q 523 62 531 85 q 507 21 515 39 q 490 3 499 3 q 478 9 481 3 q 471 15 475 15 q 448 8 458 15 q 425 0 438 0 q 393 19 410 0 q 369 57 376 38 q 340 132 356 96 q 313 207 324 168 q 267 324 296 265 q 207 439 239 382 q 144 551 175 496 q 90 656 114 606 q 78 680 88 660 q 60 723 69 700 q 44 767 51 746 q 36 792 36 788 q 32 822 36 804 q 24 853 28 839 q 24 874 22 860 q 32 901 26 888 q 46 925 38 915 q 64 935 54 935 q 74 931 74 935 q 71 921 74 928 q 83 925 76 922 q 93 932 90 928 q 115 901 108 922 q 141 811 128 849 q 178 724 154 774 l 297 503 q 333 432 318 469 q 361 356 347 394 q 392 279 375 317 q 432 208 408 242 q 479 328 458 267 q 524 451 500 390 q 551 509 535 482 q 578 567 567 536 q 626 651 590 600 q 704 756 661 703 q 791 857 747 810 q 865 926 835 904 q 919 972 893 949 q 986 1022 946 994 l 990 1024 l 994 1024 l 996 1022 l 996 1015 z "},"W":{"ha":1289,"x_min":43,"x_max":1247,"o":"m 1232 986 q 1243 991 1239 989 q 1244 986 1247 993 q 1226 933 1236 960 q 1217 879 1217 907 q 1215 852 1217 865 q 1206 828 1213 839 q 1198 774 1201 800 q 1194 719 1194 747 q 1178 571 1194 644 q 1174 557 1175 564 q 1172 543 1172 550 q 1165 481 1172 511 q 1153 419 1157 450 q 1147 387 1150 403 q 1142 356 1144 371 q 1134 303 1136 329 q 1128 250 1132 276 q 1119 190 1125 229 q 1102 110 1114 150 q 1072 42 1090 71 q 1024 13 1053 13 q 986 28 1008 13 q 940 67 964 43 q 892 119 917 90 q 847 176 868 149 q 811 226 826 203 q 789 260 796 249 q 765 300 776 279 q 738 338 753 321 q 658 251 694 297 q 581 161 621 204 q 515 92 547 125 q 443 32 483 60 q 423 17 429 22 q 413 8 417 11 q 403 5 408 6 q 385 4 397 4 q 319 35 344 4 q 292 98 306 53 q 267 195 279 143 q 243 297 254 247 q 222 375 232 347 q 142 629 179 503 q 47 878 106 756 q 43 896 43 886 q 63 928 43 918 q 100 938 83 938 q 130 926 114 938 q 154 906 146 915 q 199 822 175 881 q 247 688 222 764 q 297 528 272 613 q 342 363 321 443 q 378 217 363 283 q 400 114 393 151 q 451 189 422 157 q 510 250 479 221 q 573 308 542 279 q 633 371 604 336 q 665 411 650 390 q 689 457 681 432 q 694 469 692 463 q 703 475 696 475 q 713 472 708 475 q 722 469 717 469 q 740 476 733 469 q 780 445 760 469 q 820 392 800 421 q 858 333 840 363 q 889 288 876 304 q 915 253 897 278 q 951 203 932 229 q 987 155 969 176 q 1013 128 1004 133 q 1046 333 1029 228 q 1078 538 1063 438 q 1088 607 1083 572 q 1104 675 1093 642 q 1116 694 1113 682 q 1121 719 1119 706 q 1123 745 1122 732 q 1128 768 1124 758 q 1137 782 1132 775 q 1144 796 1142 789 q 1163 844 1151 813 q 1187 908 1174 876 q 1213 964 1200 940 q 1232 986 1225 988 z "},"X":{"ha":931,"x_min":46,"x_max":874,"o":"m 721 735 q 714 725 719 733 q 678 670 697 699 q 640 613 660 642 q 601 556 619 583 q 568 503 583 528 q 594 453 574 485 q 641 386 615 421 q 691 318 667 351 q 728 261 715 285 q 762 208 743 235 q 800 157 781 182 q 837 107 819 132 q 865 57 854 82 q 870 26 874 39 q 858 6 867 14 q 841 -3 850 -1 q 828 0 832 -4 q 811 19 821 7 q 792 43 801 31 q 776 67 782 56 q 769 85 769 79 q 756 119 769 93 q 719 181 742 146 q 669 256 696 215 q 615 333 642 296 q 564 401 588 371 q 526 447 540 432 q 470 363 504 410 q 398 269 436 317 q 322 179 360 222 q 251 107 283 136 l 267 140 q 231 106 253 125 q 183 66 208 86 q 133 28 158 46 q 88 0 108 11 l 94 18 q 76 5 83 11 q 57 -8 68 -1 q 47 -8 47 -12 q 48 4 46 -4 q 53 21 50 13 q 57 31 57 29 q 63 50 57 42 q 75 65 68 58 q 131 126 104 93 q 183 193 157 158 q 234 262 208 228 q 285 326 260 296 q 369 435 329 379 q 450 547 410 492 q 377 637 414 593 q 304 725 340 681 q 268 769 289 746 q 224 814 247 792 q 178 856 201 836 q 135 892 156 876 q 111 912 119 903 q 107 940 103 921 q 113 958 104 951 q 133 967 121 965 q 158 967 146 969 q 178 960 171 965 q 256 887 213 933 q 344 788 300 840 q 426 687 388 736 q 492 606 465 638 q 584 730 539 668 q 674 856 629 792 q 714 910 693 885 q 751 967 735 936 q 763 981 756 972 q 777 999 769 990 q 790 1016 785 1008 q 796 1026 796 1024 q 799 1030 797 1031 q 803 1025 801 1029 q 810 1011 806 1018 q 821 1001 814 1004 q 826 997 825 999 q 828 992 826 994 q 824 979 828 982 q 813 963 817 975 q 807 944 808 951 q 801 928 804 936 q 793 913 797 921 q 785 897 789 906 q 775 881 781 889 q 775 875 775 875 q 779 865 781 869 q 775 856 778 861 q 767 843 772 849 q 760 831 763 838 q 760 824 757 825 q 761 818 764 822 q 740 787 750 803 q 721 754 731 771 q 717 749 718 751 q 714 744 717 747 l 721 735 z "},"Y":{"ha":840,"x_min":28,"x_max":811,"o":"m 367 86 q 358 173 367 131 q 350 260 350 215 q 351 340 350 300 q 356 421 351 381 q 350 472 356 449 q 335 514 344 494 q 312 551 325 533 q 283 588 299 569 q 263 610 274 600 q 240 632 251 621 q 144 751 188 685 q 57 875 101 817 q 39 899 50 885 q 28 929 28 913 q 58 949 28 949 q 71 951 67 951 q 92 942 85 951 q 107 924 100 933 q 172 835 138 878 q 241 752 206 793 q 312 670 276 711 q 381 586 347 629 q 440 654 406 619 q 507 717 475 689 q 531 743 521 729 q 556 769 542 757 q 627 851 594 807 q 700 931 660 894 q 714 942 704 935 q 734 955 724 949 q 755 965 744 961 q 771 969 765 969 q 783 964 778 969 q 790 954 788 958 l 800 958 q 809 949 807 956 q 811 936 811 943 q 804 921 811 928 q 783 863 803 894 q 731 795 763 831 q 660 722 699 760 q 582 647 621 685 q 507 574 543 610 q 447 506 471 538 q 447 438 440 475 q 453 365 453 400 q 453 301 453 340 q 456 222 454 263 q 458 142 457 181 q 458 78 458 103 q 456 57 458 67 q 444 39 453 47 q 443 21 444 32 q 439 -1 442 10 q 431 -21 436 -12 q 415 -29 425 -29 q 363 25 363 -29 q 365 56 363 40 q 367 86 367 71 z "},"Z":{"ha":957,"x_min":75,"x_max":893,"o":"m 838 85 q 810 82 826 85 q 778 74 794 79 q 746 63 761 68 q 722 50 731 57 l 772 43 q 728 31 757 36 q 664 24 699 26 q 638 25 651 25 q 615 25 624 25 q 588 24 601 25 q 561 24 575 24 q 447 13 506 24 q 329 3 388 3 l 319 3 l 303 -1 l 294 -1 q 274 0 283 -1 q 253 1 264 1 q 237 -2 244 1 q 221 -6 229 -6 q 165 -5 182 -6 q 131 -4 147 -4 q 103 1 117 -4 q 83 14 90 6 q 75 35 75 22 q 85 64 75 47 q 111 103 96 81 q 142 147 126 125 q 171 185 158 168 q 189 206 183 201 q 231 252 201 218 q 290 324 260 286 q 347 394 321 361 q 381 438 372 426 q 414 484 390 453 q 466 553 438 515 q 524 629 494 590 q 575 699 554 668 q 602 740 586 714 q 635 791 618 765 q 667 839 651 817 q 694 868 683 861 q 667 865 690 867 q 617 863 644 864 q 563 860 589 861 q 526 860 538 860 q 489 862 507 860 q 451 864 471 864 q 414 860 432 864 q 376 861 396 857 q 328 867 350 867 q 288 867 307 868 q 249 865 268 867 q 208 864 229 864 q 194 865 199 864 q 184 868 190 867 q 166 871 178 869 q 131 872 154 872 l 119 872 q 103 878 110 872 q 93 891 96 885 q 91 903 90 897 q 96 910 92 910 q 103 915 103 911 q 102 925 103 919 q 103 935 101 931 q 114 942 104 940 q 140 947 126 944 q 167 949 154 949 q 191 951 181 950 q 204 951 201 951 q 314 953 260 951 q 422 954 368 954 q 486 951 454 954 q 550 947 518 947 q 577 950 564 947 q 604 953 590 953 q 707 960 657 953 q 806 967 757 967 q 836 951 824 967 l 840 950 l 850 957 q 859 954 854 957 q 864 946 864 951 q 854 932 864 935 q 836 929 844 929 q 806 909 824 929 q 773 863 789 889 q 744 810 757 836 q 724 774 731 785 q 606 588 671 676 q 468 415 542 499 q 347 272 406 344 q 246 115 288 200 q 320 119 285 115 q 397 122 356 122 q 514 126 456 122 q 631 129 572 129 q 696 130 663 129 q 761 131 729 131 q 784 131 769 131 q 815 132 799 132 q 846 131 831 132 q 871 128 861 131 q 890 119 886 126 q 888 105 893 113 q 869 91 882 97 q 838 85 856 85 z "},"z":{"ha":674,"x_min":17,"x_max":690,"o":"m 626 76 q 642 78 635 76 q 658 79 650 79 q 676 78 663 79 q 690 71 690 78 q 676 62 690 64 q 657 57 663 60 q 638 46 646 54 q 618 38 631 38 q 591 28 613 38 q 550 18 569 18 q 526 15 538 18 q 504 11 515 11 q 340 13 419 11 q 167 -6 261 14 q 150 -8 158 -7 q 135 -11 142 -8 q 114 -18 124 -19 q 94 -22 104 -17 q 83 -33 89 -25 q 72 -40 78 -40 q 57 -35 65 -40 q 51 -35 54 -35 q 46 -36 49 -36 q 26 -31 35 -36 q 17 -14 17 -25 q 21 20 17 6 q 39 47 25 35 q 67 73 53 61 q 96 100 82 85 q 175 206 140 150 q 253 314 210 263 q 326 406 286 354 q 401 493 365 457 q 324 483 372 483 q 227 493 276 483 q 135 522 178 503 q 75 569 93 542 q 69 582 72 575 q 75 597 67 589 q 88 608 81 604 q 101 617 94 613 q 111 620 107 619 q 124 614 115 621 q 147 601 132 607 q 172 596 161 596 q 198 599 186 596 q 222 603 210 603 q 267 598 247 603 q 310 588 288 593 q 362 578 333 583 q 433 574 390 574 q 451 575 442 574 q 468 582 461 576 q 476 585 471 585 q 485 585 481 585 q 501 582 493 585 q 517 576 508 579 q 531 581 522 579 q 546 581 539 583 q 560 567 558 576 q 550 550 561 558 q 504 505 533 538 q 440 430 475 472 q 366 340 404 388 q 293 247 328 292 q 231 163 258 201 q 188 104 203 125 q 178 94 182 97 q 172 89 175 92 q 183 88 178 88 q 192 88 188 88 q 292 98 254 94 q 358 103 331 101 q 406 106 385 106 q 456 107 426 107 q 485 103 471 107 q 514 94 499 99 q 569 81 540 86 q 626 76 599 76 z "},"y":{"ha":649,"x_min":29,"x_max":621,"o":"m 210 -337 l 210 -332 q 217 -290 211 -310 q 226 -249 224 -269 q 240 -220 231 -242 q 260 -170 249 -199 q 285 -110 272 -142 q 308 -50 297 -78 q 325 -2 318 -22 q 332 22 332 18 q 327 29 332 29 q 318 29 322 29 q 263 56 293 29 q 204 122 233 83 q 150 202 175 160 q 111 274 125 244 q 81 345 96 306 q 55 423 67 385 q 36 492 43 461 q 29 538 29 524 q 54 602 32 590 q 104 603 76 614 q 101 610 103 607 q 97 615 100 613 q 117 606 110 618 q 132 585 125 593 q 149 570 147 582 q 153 547 150 558 q 165 497 157 525 q 181 439 172 468 q 199 381 190 410 q 214 328 208 351 q 234 273 218 313 q 270 192 250 233 q 312 119 290 151 q 350 88 333 88 q 358 93 357 88 q 363 103 360 99 q 410 230 388 167 q 454 358 433 293 q 485 457 469 407 q 518 553 500 507 q 548 594 528 575 q 604 608 568 614 q 619 592 621 606 q 615 565 617 579 q 618 552 615 558 q 621 539 621 546 q 602 472 618 504 q 585 404 586 440 q 573 351 585 389 q 544 264 561 313 q 505 160 526 215 q 463 58 483 106 q 425 -26 443 10 q 397 -75 407 -62 q 376 -101 386 -82 q 358 -142 367 -119 q 341 -187 349 -165 q 326 -222 333 -210 q 319 -232 322 -229 q 310 -240 317 -235 q 294 -253 300 -249 q 283 -264 288 -258 q 275 -276 279 -269 q 264 -294 271 -283 q 244 -306 251 -297 q 227 -322 233 -312 q 210 -337 221 -331 z "},"x":{"ha":756,"x_min":43,"x_max":775,"o":"m 679 8 q 671 -2 679 -4 q 656 0 663 0 q 642 -4 649 0 q 626 -8 635 -8 q 611 -3 619 -8 l 604 -3 q 580 6 590 -3 q 558 21 569 14 q 545 27 551 25 q 532 32 539 29 q 465 62 496 43 q 404 104 433 81 q 385 120 399 108 q 357 145 372 132 q 328 168 342 158 q 311 178 315 178 q 303 174 307 178 q 297 168 300 171 q 278 139 286 154 q 261 108 271 124 q 235 78 254 99 q 192 38 215 58 q 149 3 169 18 q 117 -11 128 -11 q 87 -1 101 -11 q 72 28 72 10 q 97 77 72 49 q 152 137 121 106 q 213 199 183 168 q 251 253 242 229 q 173 345 211 294 q 103 447 135 396 q 85 468 96 458 q 65 488 74 478 q 49 510 56 499 q 44 536 43 521 q 44 551 46 543 q 43 567 43 560 q 44 581 43 575 q 53 589 46 588 q 73 597 64 592 q 90 604 82 601 q 107 606 99 607 q 125 596 115 606 q 143 585 133 586 q 156 572 153 583 q 169 538 158 561 q 197 485 181 514 q 231 424 213 456 q 267 367 249 393 q 299 325 285 342 q 322 308 314 308 q 335 317 329 308 q 346 332 342 326 q 410 407 371 372 q 485 474 450 442 q 497 488 493 481 q 531 521 515 503 q 563 558 547 539 q 609 603 585 583 q 650 656 633 624 q 664 670 654 663 q 685 685 674 678 q 709 696 697 692 q 728 700 721 700 q 738 698 731 700 q 754 693 746 696 q 769 687 763 690 q 775 681 775 683 q 769 656 775 669 q 757 635 764 643 q 736 616 747 624 q 715 599 725 608 q 679 562 707 590 q 614 497 651 533 q 535 419 576 460 q 460 342 494 378 q 404 280 426 306 q 383 249 382 254 q 409 215 386 236 q 465 169 432 193 q 535 119 497 144 q 604 71 572 93 q 658 32 636 49 q 679 8 679 15 z "},"w":{"ha":963,"x_min":29,"x_max":956,"o":"m 885 421 q 876 394 881 407 q 865 367 872 381 q 835 285 846 326 q 800 206 825 243 q 789 180 792 193 q 785 153 786 167 q 783 126 785 139 q 774 100 781 113 q 742 49 758 74 q 707 1 726 24 q 697 -12 703 -4 q 685 -19 692 -19 q 649 10 669 -19 q 606 83 628 39 q 560 181 583 128 q 516 285 536 235 q 478 374 496 335 q 451 428 461 413 q 433 402 446 425 q 408 351 421 379 q 384 297 396 324 q 368 261 372 271 q 338 203 357 238 q 298 130 318 168 q 263 56 278 92 q 247 -6 249 19 q 240 -15 246 -18 q 224 -12 235 -12 q 210 -17 217 -12 q 197 -21 204 -21 q 180 -12 188 -21 q 167 7 172 -4 q 158 29 161 18 q 151 47 154 40 q 131 140 138 93 q 118 235 125 188 q 97 359 108 297 q 68 481 86 421 q 62 499 67 488 q 51 524 57 511 q 42 547 46 536 q 39 564 39 558 q 40 572 39 568 q 42 581 42 576 q 37 596 42 589 q 29 611 32 603 q 42 617 36 614 q 54 622 47 621 l 65 614 l 71 618 q 81 625 74 625 q 99 612 88 625 q 113 592 110 599 l 118 589 l 119 594 l 119 599 q 125 606 119 606 q 133 599 131 606 q 177 520 161 557 q 204 446 193 483 q 224 368 215 408 q 242 281 232 328 q 244 261 244 267 q 243 244 244 253 q 242 229 242 236 q 243 208 242 215 q 277 251 258 218 q 317 326 296 283 q 360 417 338 369 q 404 506 383 465 q 444 572 425 546 q 478 599 463 599 q 521 592 497 599 l 524 594 l 532 594 l 546 586 l 546 579 q 544 569 546 572 q 539 553 539 564 q 544 533 539 549 q 551 510 549 517 q 570 441 560 475 q 592 372 581 407 q 622 293 604 332 q 650 213 639 254 q 663 157 657 188 q 679 104 668 126 l 679 107 l 681 104 q 706 161 693 117 q 733 261 718 206 q 767 374 749 317 q 810 468 786 431 q 835 521 825 493 q 860 574 844 549 q 870 586 865 578 q 881 601 875 594 q 892 608 886 607 q 904 600 897 610 q 913 610 908 604 q 925 615 918 615 l 932 617 q 947 615 939 614 q 956 604 954 615 l 956 597 q 920 510 940 553 q 885 421 900 467 z "},"v":{"ha":647,"x_min":22,"x_max":667,"o":"m 667 664 q 651 633 665 656 q 618 587 636 611 q 583 540 600 563 q 557 510 565 518 q 508 450 529 482 q 468 385 488 418 q 419 309 444 346 q 371 232 393 272 q 356 202 367 225 q 333 153 344 179 q 314 104 322 126 q 306 75 306 82 q 303 48 306 68 q 295 6 300 28 q 283 -32 290 -15 q 265 -49 275 -49 q 240 -41 250 -49 q 219 -24 231 -33 q 196 2 204 -10 q 185 38 188 14 q 186 46 185 42 q 188 54 188 50 q 180 108 188 82 q 165 163 172 135 q 119 324 147 246 q 67 485 92 403 q 51 530 60 508 q 28 572 42 551 q 22 583 22 578 q 27 594 22 589 q 39 599 32 599 q 60 590 50 599 q 86 581 69 581 q 107 559 94 581 q 133 504 119 538 q 162 430 147 471 q 190 350 176 389 q 214 279 203 311 q 231 231 225 247 q 241 222 236 215 q 250 238 246 229 q 381 422 299 339 q 554 575 464 504 q 606 622 582 597 q 661 664 629 646 l 667 664 z "},"u":{"ha":594,"x_min":53,"x_max":539,"o":"m 185 397 q 177 272 185 335 q 169 146 169 210 q 179 110 169 126 q 213 93 189 93 q 251 100 222 93 q 310 117 279 107 q 365 138 340 126 q 389 158 389 150 q 388 177 389 168 q 389 196 388 186 q 394 266 390 224 q 403 356 397 308 q 421 449 410 403 q 447 533 432 496 q 481 590 461 569 q 528 604 501 610 q 537 592 535 601 q 539 575 539 582 q 535 538 539 550 q 527 512 531 525 q 522 478 524 499 q 524 419 519 458 q 518 372 524 392 q 510 324 513 351 q 507 223 504 275 q 494 124 510 171 q 489 111 492 117 q 483 99 486 106 q 478 72 479 88 q 476 39 476 56 q 477 6 476 22 q 478 -24 478 -11 q 472 -56 478 -42 q 444 -67 465 -69 q 423 -51 432 -65 q 408 -16 414 -36 q 397 24 401 4 q 392 56 393 44 q 388 83 390 71 q 379 94 385 94 q 360 85 372 94 q 343 71 349 75 q 315 51 333 63 q 273 28 296 39 q 226 10 250 18 q 181 3 201 3 q 129 19 151 3 q 92 60 107 36 q 70 113 78 85 q 63 165 63 142 q 69 288 63 228 q 82 410 76 347 q 88 461 85 436 q 92 514 92 486 q 92 540 92 525 q 86 567 92 556 q 77 578 82 578 q 65 582 72 579 q 60 594 53 585 q 88 609 68 606 q 114 613 107 613 q 152 586 138 613 q 174 524 167 560 q 183 452 181 488 q 185 397 185 417 z "},"t":{"ha":593,"x_min":14,"x_max":599,"o":"m 307 779 q 335 757 326 765 q 344 722 344 749 q 347 681 344 701 q 350 640 350 661 q 347 617 350 629 q 343 593 344 606 l 343 579 q 378 583 358 578 q 419 588 399 588 q 442 588 425 588 q 478 587 460 588 q 513 585 497 586 q 531 581 528 583 q 515 572 524 574 q 497 568 506 571 l 539 568 q 556 570 547 568 q 574 572 564 572 q 593 569 579 572 l 599 564 q 567 553 589 560 q 522 540 546 546 q 476 528 499 533 q 443 519 454 522 q 422 515 436 518 q 390 510 407 513 q 359 505 374 507 q 339 503 344 503 q 326 492 329 501 q 322 475 324 482 q 315 423 319 451 q 306 364 310 394 q 299 304 301 333 q 296 251 296 275 q 297 207 296 235 q 303 152 297 179 q 322 106 308 125 q 360 86 335 86 q 413 92 386 86 q 467 104 440 97 q 488 113 478 107 q 508 119 497 119 q 518 104 531 119 q 488 75 508 93 q 442 40 468 57 q 388 10 417 22 q 329 -3 358 -3 q 276 9 297 -3 q 246 28 254 21 q 204 114 213 63 q 196 210 196 165 q 201 272 196 242 q 210 335 206 303 q 216 368 213 349 q 223 407 219 388 q 228 446 226 426 q 231 479 231 465 q 223 497 233 496 q 206 500 213 499 q 164 502 178 504 q 122 500 150 500 q 94 501 113 500 q 58 506 75 503 q 27 517 40 510 q 14 536 14 524 q 26 563 14 556 q 50 572 39 569 q 119 583 81 579 q 183 588 158 588 q 214 586 206 588 q 244 585 222 585 q 260 599 254 585 q 270 633 267 614 q 275 672 274 653 q 276 699 276 690 q 280 724 276 711 q 283 750 283 736 l 286 754 l 294 746 l 299 746 q 304 753 304 746 q 303 764 304 761 l 307 769 l 307 779 z "},"s":{"ha":504,"x_min":35,"x_max":463,"o":"m 397 614 l 418 614 q 428 611 422 614 q 433 610 431 610 q 439 608 436 611 q 446 601 442 606 q 449 592 450 597 q 444 581 447 585 q 436 572 440 576 q 429 571 435 571 q 419 572 424 571 q 408 571 414 572 q 366 556 389 567 q 328 535 343 544 q 315 525 324 532 q 296 510 306 518 q 277 492 286 501 q 264 476 268 483 q 259 459 260 469 q 261 442 258 449 q 280 413 265 428 q 313 382 294 397 q 349 351 331 367 q 378 321 367 336 q 383 315 381 318 q 388 308 385 311 q 393 300 390 303 q 399 294 397 299 q 403 289 401 292 q 408 283 406 286 l 413 275 q 417 268 415 271 q 422 263 419 265 q 431 244 425 258 q 444 213 438 231 q 456 178 451 196 q 461 147 461 160 q 462 129 461 133 q 458 113 463 125 q 454 101 456 107 q 450 90 453 96 q 442 76 449 83 q 432 65 435 69 q 426 57 429 60 q 414 44 419 50 q 401 36 408 39 q 393 32 397 33 q 386 28 389 31 q 367 14 378 19 q 344 6 356 7 q 294 -2 321 -1 q 247 -8 267 -3 q 228 -10 244 -10 q 194 -12 213 -11 q 162 -12 176 -12 q 144 -11 147 -12 q 135 -9 139 -8 q 125 -10 131 -10 q 92 -2 101 -8 q 67 7 82 4 q 45 16 56 10 q 40 36 35 22 q 45 48 43 43 q 47 60 47 53 q 51 67 47 64 q 60 72 56 71 q 67 75 63 75 q 76 75 72 75 q 94 67 89 72 q 110 57 100 63 q 150 49 132 47 q 158 49 154 47 q 165 50 161 50 q 176 50 167 49 q 188 53 185 51 q 190 54 189 53 q 196 56 194 54 q 210 58 206 56 l 213 58 q 222 61 217 58 q 231 61 226 60 q 239 64 235 63 l 246 64 q 260 67 253 64 q 274 71 267 71 q 294 79 286 71 q 301 82 299 79 q 324 90 308 82 q 347 106 340 99 q 353 110 350 108 q 358 114 356 111 q 363 119 361 117 q 368 125 365 122 q 383 144 376 135 q 389 167 389 153 q 379 202 389 186 q 357 232 369 218 q 313 280 335 256 q 267 326 290 304 q 233 358 249 343 q 206 393 218 374 q 194 412 199 403 q 188 432 189 421 q 186 462 185 444 q 199 503 188 479 q 229 539 208 522 q 267 569 250 556 q 269 572 267 569 q 285 581 276 576 q 301 589 294 586 q 318 593 311 589 q 333 601 325 597 q 342 604 339 604 q 369 609 357 606 q 397 614 382 613 z "},"r":{"ha":560,"x_min":61,"x_max":579,"o":"m 546 601 q 554 594 549 600 q 566 582 560 589 q 576 569 572 575 q 578 558 579 563 q 572 554 576 554 q 548 552 560 553 q 525 542 536 551 q 508 531 515 535 q 490 525 501 526 q 342 494 417 518 q 207 431 268 471 q 213 378 210 413 q 213 300 215 343 q 206 263 207 276 q 206 238 204 249 q 208 217 207 228 q 207 185 208 206 q 201 144 206 164 q 196 103 197 124 q 197 92 196 97 q 197 82 199 88 q 189 44 196 63 q 179 0 182 25 q 169 -15 179 -11 q 149 -17 160 -19 q 128 -8 138 -15 q 117 11 118 -1 q 103 110 110 56 q 100 221 96 165 q 105 271 103 249 q 104 322 107 293 q 100 376 101 354 q 97 414 99 397 q 95 445 96 431 q 93 476 94 460 q 87 519 92 497 q 76 563 82 542 q 65 604 69 585 q 63 638 61 624 q 79 653 64 650 q 103 653 94 656 q 149 636 133 644 q 172 616 164 628 q 185 588 181 604 q 199 550 190 572 q 248 573 218 563 q 308 591 278 583 q 365 602 339 599 q 401 606 392 606 q 435 607 417 606 q 474 610 454 608 q 513 610 493 611 q 546 601 532 608 z "},"q":{"ha":667,"x_min":63,"x_max":839,"o":"m 839 -222 q 777 -281 818 -256 q 700 -319 736 -307 q 651 -329 676 -329 q 589 -309 613 -329 q 553 -258 565 -289 q 537 -192 540 -228 q 533 -126 533 -157 q 535 -52 533 -89 q 540 13 538 -15 q 518 47 543 47 q 436 51 482 47 q 346 65 396 56 q 247 91 296 74 q 155 133 197 108 q 88 193 113 158 q 63 268 63 226 q 96 379 63 329 q 176 469 128 429 q 280 541 224 510 q 397 594 336 572 q 514 625 457 615 l 515 625 l 508 631 q 507 638 501 635 q 534 644 514 642 q 564 643 554 646 q 571 638 571 643 q 579 601 574 618 q 588 567 585 585 q 590 533 589 550 q 592 500 592 517 q 592 485 592 492 q 593 472 592 478 l 601 347 q 605 282 604 315 q 606 217 606 249 l 606 122 q 606 102 606 121 q 606 53 606 83 q 606 -12 606 24 q 609 -83 607 -49 q 614 -147 611 -117 q 621 -193 617 -176 q 642 -236 628 -217 q 683 -256 656 -256 q 762 -246 721 -256 q 839 -222 803 -236 m 535 122 q 534 177 535 150 q 532 232 533 204 q 528 340 528 286 q 528 367 528 354 q 529 393 528 379 q 531 418 531 406 q 531 444 531 431 l 531 468 q 530 483 531 475 q 528 501 529 492 q 524 516 526 508 q 518 532 521 524 q 490 550 513 550 q 463 546 476 550 q 439 538 449 542 q 390 517 408 526 q 249 424 314 481 q 217 392 232 408 q 192 357 203 375 q 168 278 168 318 q 176 251 168 264 q 194 226 183 238 q 218 205 206 214 q 242 189 231 196 q 316 152 278 167 q 393 125 354 138 q 431 115 413 119 q 464 107 449 110 q 493 102 481 104 q 515 100 506 100 q 529 107 524 100 q 535 122 535 114 z "},"p":{"ha":699,"x_min":26,"x_max":631,"o":"m 360 604 q 460 596 411 604 q 547 565 508 588 q 608 501 585 542 q 631 399 631 461 q 610 301 631 344 q 557 222 590 257 q 481 158 524 186 q 392 110 438 131 q 303 74 347 89 q 225 50 260 60 q 218 20 219 42 q 216 -24 217 -1 q 214 -67 215 -47 q 206 -93 213 -86 q 200 -99 201 -99 q 197 -108 199 -99 q 192 -177 190 -144 q 194 -246 194 -210 q 190 -269 194 -257 q 171 -281 186 -281 l 168 -276 q 154 -260 165 -261 q 133 -254 143 -260 q 126 -240 128 -251 q 123 -216 124 -229 q 123 -190 122 -203 q 124 -171 124 -178 q 122 -60 124 -114 q 126 53 119 -6 q 133 174 133 114 q 133 296 133 235 q 132 324 133 303 q 128 369 131 346 q 119 411 125 393 q 107 431 114 429 q 94 418 101 419 q 76 417 88 417 q 45 428 64 417 q 26 454 26 439 q 36 467 26 461 q 50 479 46 474 q 65 501 61 492 q 74 519 69 511 q 87 535 79 528 q 113 551 94 543 q 160 567 128 558 q 231 585 193 576 q 305 599 269 593 q 360 604 340 604 m 550 354 q 537 409 550 383 q 502 454 524 435 q 453 485 481 474 q 397 496 425 496 q 332 493 367 496 q 268 485 297 490 q 219 470 239 479 q 199 450 200 461 q 219 333 214 396 q 225 201 225 269 q 223 164 225 178 q 222 131 221 150 q 226 113 222 115 q 240 113 231 111 q 329 145 276 119 q 431 206 382 171 q 515 280 481 240 q 550 354 550 319 z "},"o":{"ha":721,"x_min":68,"x_max":651,"o":"m 651 301 q 616 174 651 231 q 525 76 581 117 q 402 13 469 36 q 271 -15 335 -11 q 199 -8 235 -18 q 133 26 163 1 q 86 90 104 50 q 68 188 68 131 q 82 279 68 233 q 119 365 96 325 q 172 438 142 406 q 238 490 203 471 q 269 499 258 501 q 285 487 281 496 q 287 466 289 478 q 278 446 285 454 q 239 395 260 425 q 201 331 218 365 q 172 258 183 296 q 160 188 160 221 q 167 151 160 169 q 188 116 175 132 q 218 90 201 100 q 253 79 235 79 q 347 95 299 79 q 434 140 394 111 q 499 210 474 169 q 524 299 524 250 q 510 390 524 344 q 472 473 496 436 q 414 533 447 510 q 343 556 381 556 q 313 552 326 556 q 283 544 299 549 q 250 563 260 540 q 252 594 242 581 q 285 615 263 608 q 330 624 306 622 q 375 625 354 625 q 484 593 433 625 q 572 513 535 561 q 631 408 610 465 q 651 301 651 351 z "},"n":{"ha":649,"x_min":60,"x_max":586,"o":"m 586 44 q 584 15 586 33 q 567 -3 582 -3 q 538 6 550 -3 q 520 27 526 14 q 511 56 514 40 q 508 85 508 71 q 506 136 508 111 q 503 188 503 161 q 502 230 503 213 q 499 264 501 247 q 494 299 497 281 q 486 340 490 317 q 478 394 482 364 q 467 451 475 424 q 444 499 460 478 q 397 526 428 519 q 332 524 365 533 q 267 497 299 515 q 210 455 236 479 q 167 407 185 431 q 163 375 164 396 q 161 347 161 354 q 156 247 161 290 q 151 146 151 203 q 153 76 151 119 q 154 0 154 33 l 147 -4 q 137 -1 142 -3 q 126 1 132 1 q 111 -2 118 1 q 97 -6 104 -6 q 80 3 86 -6 q 71 25 74 13 q 67 51 68 38 q 67 71 67 64 q 69 103 67 88 q 71 135 71 119 q 69 165 71 150 q 67 194 67 179 l 67 388 q 66 438 67 413 q 65 488 65 463 q 63 515 65 501 q 61 543 60 529 q 69 577 61 567 q 96 588 76 588 q 143 576 121 588 q 151 563 149 574 q 156 539 154 551 q 160 517 158 526 q 167 506 163 507 q 205 547 176 528 q 268 578 233 565 q 338 599 303 592 q 397 606 374 606 q 454 592 424 606 q 511 555 485 578 q 556 503 538 532 q 574 443 574 474 q 574 419 574 435 q 575 388 575 404 q 576 356 575 372 q 576 329 576 340 q 577 277 576 303 q 575 225 578 251 q 574 174 572 196 q 578 133 575 153 q 583 92 581 113 q 586 44 586 72 z "},"m":{"ha":833,"x_min":18,"x_max":782,"o":"m 776 446 q 779 414 778 431 q 778 382 781 397 q 777 364 776 372 q 779 346 778 356 q 775 300 782 324 q 774 288 772 293 q 774 276 775 282 q 769 249 771 263 q 771 224 768 236 q 770 169 775 200 q 760 115 765 139 q 756 96 757 106 q 754 76 756 86 q 753 68 754 69 q 746 54 746 61 q 744 40 746 47 q 733 10 742 25 q 726 -21 725 -6 q 726 -28 728 -25 q 725 -37 724 -32 q 721 -40 728 -40 q 714 -47 711 -37 q 714 -52 714 -50 q 711 -57 714 -54 q 708 -48 708 -53 q 704 -37 707 -43 q 699 -4 699 -21 q 700 31 699 13 q 701 56 701 43 q 703 83 701 69 q 705 104 706 94 q 708 124 704 114 q 709 131 710 126 q 708 138 708 135 q 710 181 708 160 q 714 224 713 201 q 716 265 714 244 q 718 308 718 286 q 720 349 719 328 q 718 390 721 369 q 710 443 717 415 q 707 460 707 451 q 704 475 707 468 q 692 504 700 490 q 671 528 685 518 q 648 540 660 535 q 622 540 636 546 q 582 522 599 533 q 519 477 550 503 q 458 428 488 451 q 460 403 460 418 q 462 371 461 388 q 463 339 463 354 q 463 314 463 324 q 463 278 464 296 q 463 242 463 261 q 460 226 463 232 q 458 212 457 219 q 458 196 458 204 q 457 185 457 190 q 456 174 457 181 q 449 161 456 165 q 444 151 444 160 q 444 138 444 144 q 444 124 443 131 q 443 118 447 118 q 429 125 436 117 q 417 145 422 133 q 407 169 411 157 q 403 185 403 181 q 399 219 403 203 q 396 253 394 235 q 394 320 399 288 q 386 388 389 353 q 381 423 385 401 q 371 458 376 444 q 360 485 365 472 q 346 511 354 499 q 337 520 342 517 q 326 526 332 524 q 306 532 315 535 q 288 528 297 529 q 269 522 276 526 q 251 515 261 518 q 232 505 240 511 q 217 492 224 499 q 197 476 211 486 q 169 453 183 465 q 142 430 154 440 q 128 414 131 419 q 121 406 126 411 q 107 371 104 393 q 108 310 111 343 q 108 282 107 296 q 110 254 108 268 q 112 188 111 221 q 114 122 113 156 q 115 76 115 99 q 117 31 115 54 q 115 20 117 25 q 117 8 114 15 q 113 3 117 3 q 93 0 106 4 q 72 -1 81 -4 q 64 7 64 1 q 60 15 64 11 q 51 21 56 18 q 47 28 47 25 q 40 56 44 43 q 32 83 36 69 q 29 103 29 93 q 28 122 29 113 q 24 191 25 157 q 21 261 22 225 q 19 336 19 299 q 19 413 18 374 q 26 477 21 444 q 47 540 32 510 q 57 555 51 549 q 69 568 63 561 q 81 569 71 569 q 92 571 86 571 q 111 579 103 568 q 119 579 115 583 q 125 546 132 565 q 122 514 121 529 q 129 511 122 507 q 139 519 136 514 q 147 526 142 524 q 150 528 150 528 q 185 549 169 536 q 221 571 201 563 q 242 581 232 576 q 265 588 253 585 q 295 595 281 590 q 325 600 310 600 q 376 590 354 600 q 413 563 399 579 q 436 531 428 547 q 449 501 444 514 q 482 531 461 514 q 526 564 503 549 q 572 590 549 579 q 613 603 594 601 q 676 592 647 604 q 727 559 706 581 q 762 508 749 538 q 776 446 775 479 z "},"l":{"ha":243,"x_min":50,"x_max":188,"o":"m 186 604 q 183 590 186 597 q 181 576 179 583 q 182 569 181 574 q 183 563 183 565 q 171 410 188 485 q 167 381 167 393 q 160 325 168 351 q 153 271 151 299 q 148 184 156 226 q 136 97 140 142 q 132 71 135 88 q 125 39 129 54 q 115 12 121 24 q 97 0 108 0 q 80 10 88 0 q 67 35 72 21 q 58 65 61 50 q 56 86 56 79 q 56 106 60 97 q 51 125 53 114 q 54 205 50 165 q 64 284 58 244 q 74 363 69 324 q 76 442 78 403 q 82 588 74 515 q 88 735 90 661 l 83 838 q 82 875 83 857 q 74 911 81 893 q 62 929 69 921 q 54 949 54 938 q 56 958 53 953 q 60 963 60 958 q 61 969 61 967 l 63 971 q 75 963 71 969 l 82 972 q 138 914 118 954 q 169 826 158 874 q 182 729 179 778 q 186 647 185 681 q 186 627 188 633 q 186 604 185 621 z "},"k":{"ha":642,"x_min":56,"x_max":664,"o":"m 100 0 q 72 17 88 1 q 56 72 56 32 q 58 106 56 89 q 60 139 60 122 q 60 164 60 153 q 61 186 61 175 q 60 270 61 226 q 58 356 58 314 q 67 441 58 399 q 76 526 76 483 q 81 588 76 558 q 86 649 86 618 q 84 665 86 657 q 82 679 82 672 q 85 780 82 729 q 89 881 89 831 q 87 917 89 900 q 85 954 85 935 q 94 964 85 964 q 115 955 110 964 q 132 943 119 946 q 190 900 176 933 q 204 822 204 867 q 201 799 204 810 q 197 775 197 788 q 199 757 197 765 q 200 739 200 749 q 198 717 200 735 q 193 678 196 700 q 188 635 190 657 q 186 601 186 614 q 190 583 186 592 q 193 564 193 574 q 181 410 193 486 q 168 258 168 333 q 156 198 168 228 q 144 149 144 168 q 140 122 144 136 q 131 93 136 107 q 123 66 126 79 q 121 42 119 53 q 119 15 122 32 q 100 0 117 -1 m 449 574 q 467 605 457 590 q 497 619 478 619 q 507 613 504 619 q 510 597 510 606 q 511 580 511 589 q 511 567 511 571 q 515 560 511 563 q 518 554 518 558 q 504 486 518 519 q 469 423 490 453 q 423 367 449 393 q 372 318 397 340 q 344 292 357 303 q 308 278 331 281 q 369 214 336 243 q 440 159 403 185 q 516 109 478 133 q 590 61 554 85 q 613 50 600 54 q 637 42 625 46 q 656 33 649 39 q 664 19 664 28 q 660 11 664 15 q 651 7 657 7 q 581 24 625 7 q 491 66 536 42 q 408 115 446 90 q 354 154 369 140 q 308 190 332 174 q 265 231 285 207 q 244 251 254 242 q 222 269 235 261 q 210 290 214 275 q 203 321 206 304 q 199 353 200 338 q 199 379 199 369 q 208 393 199 390 q 225 399 217 396 q 292 421 258 404 q 356 461 326 438 q 410 514 386 485 q 449 574 435 543 z "},"j":{"ha":257,"x_min":-250,"x_max":318,"o":"m 15 -149 q 39 -130 29 -142 q 57 -106 49 -118 q 67 -92 61 -99 q 65 -75 72 -85 q 69 -67 69 -71 q 69 -64 71 -65 q 79 -47 76 -58 q 91 -17 86 -32 q 99 13 96 -3 q 109 113 107 63 q 108 214 111 164 q 108 233 108 226 q 107 245 107 240 q 106 257 107 250 q 104 276 106 264 q 98 353 101 313 q 92 431 94 394 q 84 492 89 463 q 79 554 79 522 q 79 567 79 561 q 82 579 79 572 q 81 610 85 590 q 94 626 74 629 q 139 593 131 624 q 142 585 140 589 q 147 578 144 582 q 151 550 153 565 q 157 521 150 535 q 167 492 164 507 q 168 482 168 489 q 171 427 167 454 q 178 372 175 400 q 185 297 182 332 q 189 228 188 261 q 191 160 190 194 q 189 85 192 125 q 185 1 186 43 q 178 -81 185 -40 q 170 -119 175 -100 q 160 -157 165 -137 q 142 -187 154 -172 q 121 -215 131 -201 q 88 -253 106 -236 q 50 -286 69 -271 q 40 -292 47 -290 q -2 -304 19 -299 q -44 -317 -24 -310 q -64 -312 -56 -321 q -81 -307 -71 -306 q -117 -299 -99 -312 q -149 -287 -132 -287 q -183 -292 -167 -286 q -190 -293 -186 -292 q -196 -292 -193 -294 q -207 -265 -179 -272 q -228 -259 -218 -262 q -250 -249 -239 -256 q -242 -246 -246 -247 q -235 -243 -239 -244 q -224 -242 -228 -243 q -208 -237 -214 -243 q -200 -236 -203 -237 q -187 -232 -190 -236 q -178 -232 -183 -235 q -164 -231 -168 -235 l -160 -231 q -144 -227 -151 -231 q -129 -221 -136 -224 q -112 -219 -124 -222 q -64 -201 -89 -218 q -58 -200 -62 -204 q -51 -196 -53 -200 q -46 -193 -49 -197 q -22 -178 -33 -192 l -21 -176 q 3 -160 -7 -169 q 15 -149 7 -157 m 228 799 q 207 772 217 785 q 186 747 197 758 q 152 721 171 731 q 110 714 133 711 q 90 720 101 714 q 72 735 79 726 q 64 753 64 743 q 76 771 64 763 q 100 786 88 779 q 124 803 113 793 q 144 812 135 806 q 163 825 153 818 q 207 856 185 840 q 253 886 229 871 q 275 901 264 894 q 296 918 286 907 q 311 922 306 925 q 316 912 318 917 q 311 900 314 907 q 301 881 307 893 q 283 849 296 864 q 256 822 269 833 q 241 811 249 817 q 228 799 233 806 z "},"i":{"ha":289,"x_min":53,"x_max":242,"o":"m 176 471 q 182 447 179 461 q 188 418 185 433 q 192 389 190 403 q 196 367 194 375 q 197 356 196 365 q 200 333 199 346 q 203 310 201 321 q 204 294 204 299 q 206 172 214 231 q 192 61 199 113 q 188 54 189 56 q 181 38 181 44 q 178 26 181 31 q 168 17 176 21 q 164 1 161 13 q 151 -28 164 -15 q 135 -25 140 -40 q 113 38 121 8 q 104 106 104 67 q 104 157 104 132 q 106 207 104 182 q 103 278 107 239 q 98 328 100 303 q 93 376 96 353 q 88 453 88 415 q 78 528 89 490 q 74 543 76 532 q 67 568 71 554 q 61 596 64 582 q 56 618 58 610 q 61 635 53 632 q 82 636 69 639 q 101 629 90 633 q 117 619 111 625 q 134 593 125 613 q 151 551 143 574 q 166 507 160 529 q 176 471 172 485 m 158 676 q 143 690 151 686 l 143 692 q 140 692 143 692 q 137 697 139 694 q 132 703 135 700 q 131 727 132 714 q 119 749 131 740 l 118 756 l 121 764 l 124 765 q 138 778 126 774 q 164 783 150 782 q 191 786 178 785 q 213 792 204 788 l 229 792 l 231 793 q 238 790 233 792 q 240 785 242 788 l 226 729 l 228 726 l 225 718 l 222 715 q 211 695 219 704 q 196 678 203 686 q 183 668 193 668 q 171 671 176 668 q 158 676 165 674 z "},"h":{"ha":643,"x_min":56,"x_max":617,"o":"m 168 849 q 173 799 174 824 q 169 749 172 774 q 169 635 167 690 q 169 521 172 579 q 214 552 189 538 q 266 578 239 567 q 320 597 293 590 q 372 604 347 604 q 463 586 418 604 q 541 535 507 568 q 596 459 575 503 q 614 364 617 415 q 613 333 613 349 q 608 303 613 318 q 592 250 603 276 q 574 196 582 224 q 551 118 563 156 q 525 49 539 81 q 503 -5 515 26 q 483 -57 490 -36 q 476 -64 482 -61 q 465 -67 471 -67 q 453 -63 458 -67 q 450 -49 449 -60 l 446 -64 q 445 -35 443 -50 q 453 -6 447 -19 q 489 114 474 54 q 507 236 504 174 q 508 322 510 279 q 496 406 507 365 q 456 488 482 458 q 375 518 431 518 q 326 510 360 518 q 259 490 293 503 q 199 460 225 476 q 172 424 174 443 q 169 383 171 400 q 165 343 167 367 q 155 292 164 325 q 142 242 146 260 q 140 204 139 222 q 138 167 140 186 q 131 151 135 158 q 125 135 126 143 q 122 88 119 111 q 121 40 125 64 q 115 11 117 21 q 93 4 113 1 q 64 24 67 7 q 63 64 61 42 q 61 122 64 93 q 60 181 58 151 q 62 267 63 224 q 60 356 61 311 q 57 489 58 422 q 58 622 56 556 q 58 703 61 663 q 57 783 56 743 q 61 808 58 796 q 65 832 64 819 q 64 842 65 838 q 63 850 63 846 q 71 874 63 858 q 91 905 79 889 q 115 933 103 921 q 138 944 128 944 q 153 942 146 944 q 163 929 161 940 q 165 889 167 910 q 168 849 164 868 z "},"g":{"ha":597,"x_min":57,"x_max":540,"o":"m 426 35 q 420 47 426 43 q 407 50 414 50 q 371 43 386 50 q 337 27 356 36 q 291 11 318 18 q 218 4 264 4 q 149 21 179 4 q 98 64 118 38 q 67 123 78 90 q 57 186 57 156 q 68 294 57 240 q 107 396 79 347 q 164 469 128 432 q 244 535 200 506 q 335 582 288 564 q 425 600 382 600 q 450 606 442 600 q 463 620 458 613 q 471 634 468 628 q 479 640 474 640 q 497 624 497 640 q 502 601 497 613 q 507 579 507 590 q 503 559 507 568 q 499 540 499 550 q 505 455 499 497 q 519 371 511 413 q 537 237 533 304 q 540 100 540 169 q 540 -15 540 46 q 528 -134 540 -76 q 490 -241 517 -192 q 408 -321 463 -290 q 361 -345 385 -333 q 311 -357 338 -357 q 262 -351 288 -357 q 232 -346 236 -346 q 197 -328 215 -346 q 164 -301 179 -310 q 160 -295 158 -299 q 168 -290 163 -292 q 213 -283 190 -283 q 260 -278 236 -283 q 332 -243 297 -271 q 386 -183 367 -215 q 420 -78 414 -135 q 426 35 426 -21 m 156 194 q 176 143 156 161 q 227 116 197 125 q 290 106 257 107 q 347 104 324 104 q 365 105 351 104 q 392 108 378 106 q 417 114 406 110 q 428 124 428 118 q 425 205 428 164 q 422 288 422 246 q 419 373 422 331 q 415 458 415 415 q 413 485 415 468 q 397 501 411 501 q 382 498 392 501 q 360 489 372 494 q 339 478 349 483 q 324 469 329 474 q 256 414 286 442 q 203 353 225 386 q 168 282 181 321 q 156 194 156 243 z "},"f":{"ha":622,"x_min":-3,"x_max":639,"o":"m 600 557 q 592 552 597 556 q 583 546 588 549 q 557 541 571 540 q 529 535 543 542 q 510 522 519 531 q 490 514 501 514 q 467 513 476 514 q 447 511 458 511 q 434 507 438 510 q 429 500 431 504 q 426 492 428 496 q 418 485 425 488 q 392 478 408 481 q 360 473 376 475 q 327 470 343 471 q 300 469 311 469 q 302 399 299 435 q 310 322 306 364 q 314 230 314 281 q 306 113 314 179 q 304 97 306 108 q 301 72 303 85 q 295 48 299 58 q 288 35 292 38 q 280 13 288 24 q 260 15 272 1 q 234 12 247 8 q 210 24 221 15 q 194 47 200 33 q 189 72 188 60 q 194 92 190 83 q 200 111 197 101 q 204 160 203 128 q 206 229 206 192 q 205 308 206 267 q 203 385 204 349 q 201 447 203 421 q 199 483 200 474 q 167 490 189 485 q 123 503 146 496 q 79 519 100 511 q 51 532 58 526 q 35 550 42 540 q 25 569 29 560 q 16 588 21 579 q 4 603 11 597 q -2 619 -3 608 q 4 640 -1 629 q 19 657 10 650 q 38 663 28 664 q 61 662 53 660 q 81 654 69 664 q 135 619 103 636 q 188 601 167 603 q 194 656 193 626 q 197 716 196 685 q 199 778 197 747 q 207 836 200 808 q 227 890 214 864 q 260 935 240 915 q 306 966 281 954 q 363 978 332 978 q 439 959 403 978 q 508 918 475 940 q 527 909 519 915 q 543 897 535 903 l 547 889 l 574 863 l 575 851 q 570 822 575 835 q 546 808 565 808 q 537 802 539 808 q 529 796 535 796 q 506 809 521 796 q 469 839 490 822 q 422 869 447 856 q 368 882 396 882 q 330 860 344 882 q 307 811 315 839 q 296 757 299 783 q 293 719 293 731 q 292 694 293 714 q 289 653 290 675 q 285 613 288 632 q 283 586 283 593 q 308 578 294 579 q 332 578 322 576 q 363 576 347 578 q 396 576 379 575 q 423 578 406 576 q 459 580 440 579 q 494 581 478 581 q 518 579 510 581 q 544 578 535 576 q 568 583 553 581 q 596 578 583 585 q 625 574 608 572 q 639 568 633 574 l 635 568 q 621 563 625 567 q 600 557 617 560 z "},"e":{"ha":599,"x_min":39,"x_max":588,"o":"m 460 536 q 456 518 460 529 q 447 496 453 507 q 381 343 413 419 q 326 188 350 267 q 316 171 318 182 q 313 149 314 160 q 310 129 313 139 q 297 115 307 119 l 294 111 q 310 94 297 103 q 339 77 322 85 q 372 64 356 69 q 396 58 388 58 q 433 62 415 58 q 469 69 451 65 q 506 74 488 72 q 542 72 524 75 q 553 78 547 75 q 565 82 558 82 q 581 76 574 82 q 588 64 588 71 q 564 35 588 47 q 507 15 540 22 q 438 5 474 8 q 379 1 403 1 q 238 26 301 1 q 131 96 175 51 q 63 203 86 140 q 39 340 39 265 q 76 475 39 418 q 171 565 114 532 q 296 603 228 597 q 425 582 364 608 q 448 568 436 578 q 460 536 460 558 m 304 321 q 329 386 317 357 q 353 440 342 415 q 372 484 364 464 q 379 522 379 504 q 222 474 282 519 q 161 332 161 429 q 168 270 161 301 q 187 211 175 239 q 215 162 199 183 q 253 129 232 140 q 260 178 256 157 q 272 222 265 200 q 286 267 278 243 q 304 321 294 290 z "},"d":{"ha":631,"x_min":47,"x_max":563,"o":"m 510 1085 q 516 1083 513 1085 q 517 1076 519 1081 q 533 1069 524 1074 q 543 1056 543 1064 q 549 1044 543 1050 l 551 1038 q 551 996 551 1017 q 549 956 550 975 l 551 949 q 558 915 556 946 q 562 839 561 885 q 562 739 563 793 q 560 635 561 685 q 559 549 560 586 q 558 499 558 511 q 544 311 558 403 q 528 126 529 219 q 537 50 529 88 q 550 -26 544 13 l 547 -33 l 544 -33 l 539 -29 q 532 -45 536 -39 q 517 -51 528 -51 q 504 -46 507 -51 q 499 -33 501 -40 q 481 31 490 -1 q 468 94 472 63 q 467 107 467 101 q 464 119 467 113 l 464 121 l 464 119 q 452 110 457 113 q 440 103 447 107 q 438 97 438 99 q 432 90 439 96 q 401 69 422 82 q 353 42 381 56 q 297 20 326 29 q 238 11 267 11 q 159 31 194 11 q 99 83 124 50 q 60 160 74 117 q 47 251 47 204 q 75 379 47 314 q 149 497 103 444 q 253 584 194 550 q 375 618 313 618 q 415 613 396 618 q 454 600 435 607 q 456 653 454 618 q 460 731 457 688 q 466 820 463 774 q 474 908 469 867 q 485 981 479 949 q 496 1026 490 1013 q 497 1040 496 1031 q 499 1059 497 1049 q 503 1077 500 1069 q 510 1085 506 1085 m 457 153 q 450 185 453 164 q 447 231 447 207 q 446 276 446 254 q 446 313 446 299 q 449 433 446 374 q 451 553 451 493 q 442 567 451 563 q 425 572 433 572 q 328 538 376 572 q 243 450 281 504 q 183 329 206 396 q 160 197 160 263 q 185 120 160 153 q 263 88 210 88 q 304 94 276 88 q 363 110 332 100 q 419 131 393 119 q 457 153 446 143 z "},"c":{"ha":489,"x_min":56,"x_max":449,"o":"m 113 90 q 91 114 101 90 q 72 169 81 138 q 60 235 64 201 q 56 288 56 268 q 79 400 57 349 q 138 492 101 451 q 222 563 174 533 q 325 608 271 593 q 348 616 336 611 q 371 621 360 621 q 431 605 414 621 q 449 582 449 589 q 448 572 449 576 q 447 560 447 567 q 442 541 449 546 q 425 535 436 536 q 377 529 397 533 q 338 518 357 525 q 299 499 319 511 q 251 469 279 488 q 171 381 204 438 q 142 260 138 325 q 166 174 144 217 q 224 101 188 131 q 251 76 239 89 q 274 53 263 64 q 301 33 286 42 q 336 21 315 25 q 349 17 340 19 q 368 13 358 15 q 385 6 378 10 q 392 -3 392 1 q 391 -10 392 -6 q 386 -14 390 -14 q 384 -13 385 -14 q 382 -12 383 -12 l 374 -11 q 372 -10 372 -11 q 369 -10 371 -10 q 359 -15 363 -10 q 349 -19 356 -19 q 269 -1 311 -19 q 194 35 226 17 q 151 69 171 47 q 113 90 131 90 z "},"b":{"ha":638,"x_min":65,"x_max":594,"o":"m 193 961 q 190 909 186 932 q 194 858 194 886 q 193 813 194 840 q 190 756 192 785 q 186 699 188 726 q 185 654 185 672 q 186 563 185 608 q 188 471 188 517 q 184 435 188 460 q 181 400 181 411 q 183 315 181 357 q 185 229 185 272 q 173 197 185 218 q 161 153 161 176 q 163 134 161 143 q 164 115 164 125 q 163 91 164 103 q 163 67 163 79 q 160 63 163 63 q 156 62 158 63 q 151 59 153 61 q 147 50 149 57 q 147 40 146 44 q 147 31 147 36 q 128 11 147 11 q 99 28 108 11 q 86 63 89 46 q 74 199 75 131 q 69 338 72 268 q 69 378 69 356 q 67 423 68 400 q 66 469 67 446 q 65 510 65 492 q 69 689 65 596 q 81 867 74 782 q 92 936 85 913 q 118 968 99 960 q 138 979 126 972 q 161 986 149 986 q 172 985 165 986 q 183 983 178 985 q 192 975 189 981 q 193 961 196 969 m 594 344 q 585 290 594 318 q 564 239 576 263 q 539 197 551 215 q 519 171 526 179 q 458 110 494 140 q 380 53 421 81 q 297 4 339 26 q 219 -32 254 -18 q 210 -35 217 -33 q 201 -36 204 -36 q 180 -42 190 -36 q 160 -53 169 -47 q 144 -65 151 -60 q 128 -69 136 -69 q 110 -65 118 -69 l 111 -60 q 163 -25 136 -40 q 215 10 189 -10 q 300 77 254 38 q 386 164 346 117 q 453 263 426 211 q 481 365 481 315 q 465 428 481 400 q 423 478 449 457 q 365 510 397 499 q 301 521 333 521 q 276 526 290 521 q 251 540 263 532 q 231 560 239 549 q 222 585 222 572 q 230 594 222 590 q 247 599 238 597 q 265 600 256 600 q 279 600 275 600 q 390 584 333 600 q 492 535 446 568 q 566 455 538 503 q 594 344 594 407 z "},"a":{"ha":747,"x_min":56,"x_max":751,"o":"m 326 603 q 359 599 340 603 q 396 594 378 594 q 449 578 421 594 q 503 536 478 561 q 547 482 528 511 q 571 428 565 453 q 659 255 624 349 q 722 71 694 161 q 739 36 726 57 q 751 4 751 15 q 747 -12 751 -3 q 735 -26 742 -21 q 717 -10 722 -19 q 692 8 706 -4 q 672 29 679 19 q 642 74 660 44 q 605 138 625 103 q 565 213 585 174 q 529 288 546 251 q 510 338 524 301 q 479 415 496 375 q 445 485 463 454 q 414 515 428 515 q 383 513 399 515 q 351 510 368 510 q 285 485 318 510 q 226 422 253 461 q 183 334 200 383 q 167 236 167 285 q 185 156 167 185 q 234 112 204 126 q 303 94 264 97 q 385 90 343 90 q 449 97 417 90 q 514 104 481 104 q 529 101 518 104 q 540 103 532 103 q 550 93 550 103 q 534 72 550 76 q 504 67 518 67 q 479 60 490 67 q 457 46 468 53 q 422 34 440 36 q 385 32 404 32 q 365 27 374 32 q 347 22 357 22 q 247 29 299 22 q 153 57 196 36 q 83 117 110 78 q 56 221 56 156 q 83 382 56 304 q 171 518 111 460 q 240 576 204 550 q 326 603 276 603 m 300 283 q 315 325 300 310 q 356 340 331 340 q 396 325 381 340 q 411 283 411 310 q 396 243 411 258 q 356 228 381 228 q 315 243 331 228 q 300 283 300 258 z "},",":{"ha":242,"x_min":29,"x_max":171,"o":"m 32 -90 q 40 -75 33 -86 q 53 -52 46 -64 q 68 -30 61 -40 q 76 -15 75 -19 q 86 8 83 -3 q 90 29 89 18 q 92 52 92 40 q 97 78 93 64 q 113 98 101 92 q 138 101 125 104 q 160 87 150 99 q 171 53 171 75 q 155 10 171 28 q 124 -28 139 -8 q 89 -67 107 -47 q 51 -100 71 -87 q 37 -103 44 -106 q 32 -90 29 -101 z "},".":{"ha":249,"x_min":71,"x_max":178,"o":"m 114 -3 q 105 6 110 3 q 94 14 100 10 q 90 19 92 17 q 86 22 89 21 q 83 48 85 35 q 72 69 82 61 l 71 76 l 71 81 l 75 83 q 88 94 78 90 q 108 99 97 97 q 131 101 119 101 q 147 101 142 101 q 172 90 165 101 q 178 64 178 79 q 177 51 178 57 q 175 38 176 44 l 172 35 q 167 24 171 32 q 157 9 163 17 q 146 -5 151 1 q 138 -11 140 -11 q 125 -8 131 -11 q 114 -3 119 -6 z "},"!":{"ha":261,"x_min":71,"x_max":190,"o":"m 88 611 q 86 641 88 619 q 83 692 85 663 q 78 755 81 721 q 76 822 76 789 q 77 880 76 853 q 81 928 78 907 q 91 961 85 949 q 107 974 97 974 q 123 969 114 974 q 142 957 132 964 q 158 942 151 950 q 164 928 164 935 q 175 842 164 883 q 190 756 186 800 l 190 728 q 190 665 190 708 q 188 567 189 621 q 183 453 186 513 q 178 344 181 394 q 172 257 175 293 q 164 213 168 221 q 159 206 161 206 q 150 207 157 207 q 139 201 143 207 q 132 188 135 194 q 126 175 129 181 q 115 169 122 169 q 92 183 100 169 q 83 208 85 197 l 83 246 q 85 297 83 271 q 88 349 88 322 q 85 403 88 376 q 82 458 82 431 q 83 535 82 497 q 88 611 85 574 m 114 -3 q 105 6 110 3 q 94 14 100 10 q 90 19 92 17 q 86 22 89 21 q 83 48 85 35 q 72 69 82 61 l 71 76 l 71 81 l 75 83 q 88 94 78 90 q 108 99 97 97 q 131 101 119 101 q 147 101 142 101 q 172 90 165 101 q 178 64 178 79 q 177 51 178 57 q 175 38 176 44 l 172 35 q 167 24 171 32 q 157 9 163 17 q 146 -5 151 1 q 138 -11 140 -11 q 125 -8 131 -11 q 114 -3 119 -6 z "},"'":{"ha":228,"x_min":57,"x_max":176,"o":"m 57 754 q 60 771 57 758 q 66 797 63 783 q 73 822 69 810 q 78 839 76 835 q 78 886 85 867 q 72 933 71 906 q 85 961 72 949 q 114 977 97 974 q 147 972 131 981 q 169 936 163 964 q 166 890 176 913 q 147 846 156 868 q 122 797 138 822 q 92 754 107 772 q 72 744 86 747 q 57 754 58 742 z "},"\"":{"ha":367,"x_min":57,"x_max":315,"o":"m 57 754 q 60 771 57 758 q 66 797 63 783 q 73 822 69 810 q 78 839 76 835 q 78 886 85 867 q 72 933 71 906 q 85 961 72 949 q 114 977 97 974 q 147 972 131 981 q 169 936 163 964 q 166 890 176 913 q 147 846 156 868 q 122 797 138 822 q 92 754 107 772 q 72 744 86 747 q 57 754 58 742 m 196 754 q 199 771 196 758 q 205 797 201 783 q 212 822 208 810 q 217 839 215 835 q 217 886 224 867 q 211 933 210 906 q 224 961 211 949 q 253 977 236 974 q 285 972 269 981 q 308 936 301 964 q 305 890 315 913 q 286 846 294 868 q 260 797 275 822 q 231 754 246 772 q 211 744 225 747 q 196 754 197 742 z "},"-":{"ha":524,"x_min":18,"x_max":513,"o":"m 472 397 q 445 399 458 397 q 418 401 432 401 q 389 399 403 401 q 360 396 375 396 q 316 399 338 396 q 272 401 294 401 l 207 400 q 165 396 199 400 q 97 390 132 392 q 42 396 65 390 q 18 418 18 401 q 21 432 18 424 q 27 449 24 440 q 35 463 31 457 q 42 468 39 468 q 87 478 65 468 q 132 490 108 488 q 146 492 138 492 q 199 493 174 492 q 253 494 225 494 q 299 491 265 494 q 367 483 332 488 q 429 475 401 479 q 460 468 457 471 q 463 463 464 465 q 463 456 463 461 q 470 449 463 450 q 488 447 478 447 q 505 444 497 446 q 513 438 513 443 l 511 428 q 498 407 511 417 q 472 397 485 397 z "},"_":{"ha":536,"x_min":-24,"x_max":568,"o":"m 528 -144 q 501 -142 514 -144 q 474 -140 488 -140 q 431 -143 458 -140 q 388 -146 403 -146 q 359 -145 376 -146 q 323 -143 342 -144 q 287 -141 304 -142 q 258 -140 269 -140 l 193 -142 q 174 -143 189 -142 q 138 -146 158 -144 q 94 -149 117 -147 q 56 -151 72 -151 q 0 -147 24 -151 q -24 -124 -24 -142 q -21 -110 -24 -118 q -15 -93 -18 -101 q -7 -79 -11 -85 q 0 -74 -3 -74 q 45 -64 24 -74 q 90 -51 67 -54 q 104 -50 96 -50 q 172 -49 132 -50 q 239 -47 211 -47 q 271 -49 247 -47 q 324 -53 294 -50 q 388 -58 354 -56 q 449 -64 421 -61 q 495 -69 476 -67 q 515 -74 514 -72 q 519 -78 519 -76 q 518 -86 518 -81 q 526 -93 518 -92 q 543 -95 533 -94 q 560 -97 553 -96 q 568 -104 568 -99 l 567 -114 q 553 -135 567 -125 q 528 -144 540 -144 z "},"/":{"ha":558,"x_min":-50,"x_max":594,"o":"m 25 54 q 52 99 38 78 q 78 143 67 119 q 102 192 92 167 q 125 243 113 218 q 151 290 135 261 q 187 348 168 318 q 222 407 206 378 q 249 454 239 436 l 307 563 q 331 606 311 569 q 374 688 350 642 q 424 781 399 733 q 464 857 449 828 q 492 907 478 883 q 519 947 506 931 q 544 972 532 964 q 564 975 556 979 q 574 963 568 972 q 585 944 581 954 q 592 923 590 933 q 592 907 594 913 q 553 826 569 868 q 518 743 536 783 l 506 718 q 472 658 493 696 q 426 578 450 619 q 380 497 401 536 q 346 436 358 458 q 318 388 338 422 q 273 309 299 353 q 219 218 247 265 q 168 131 192 171 q 127 65 144 92 q 107 35 110 38 q 99 33 100 31 q 92 38 99 35 q 78 28 86 40 q 60 1 69 17 q 43 -26 51 -14 q 29 -35 35 -37 l 21 -29 q 2 -28 10 -24 q -12 -41 -6 -32 q -22 -60 -18 -50 q -31 -76 -26 -71 q -42 -93 -33 -82 q -49 -97 -47 -100 q -47 -87 -50 -93 q -11 -16 -28 -51 q 25 54 6 19 z "},":":{"ha":372,"x_min":71,"x_max":178,"o":"m 114 497 q 105 506 110 503 q 94 514 100 510 q 90 519 92 517 q 86 522 89 521 q 83 548 85 535 q 72 569 82 561 l 71 576 l 71 581 l 75 583 q 88 594 78 590 q 108 599 97 597 q 131 601 119 601 q 147 601 142 601 q 172 590 165 601 q 178 564 178 579 q 177 551 178 557 q 175 538 176 544 l 172 535 q 167 524 171 532 q 157 509 163 517 q 146 495 151 501 q 138 489 140 489 q 125 492 131 489 q 114 497 119 494 m 114 -3 q 105 6 110 3 q 94 14 100 10 q 90 19 92 17 q 86 22 89 21 q 83 48 85 35 q 72 69 82 61 l 71 76 l 71 81 l 75 83 q 88 94 78 90 q 108 99 97 97 q 131 101 119 101 q 147 101 142 101 q 172 90 165 101 q 178 64 178 79 q 177 51 178 57 q 175 38 176 44 l 172 35 q 167 24 171 32 q 157 9 163 17 q 146 -5 151 1 q 138 -11 140 -11 q 125 -8 131 -11 q 114 -3 119 -6 z "},";":{"ha":235,"x_min":29,"x_max":178,"o":"m 114 497 q 105 506 110 503 q 94 514 100 510 q 90 519 92 517 q 86 522 89 521 q 83 548 85 535 q 72 569 82 561 l 71 576 l 71 581 l 75 583 q 88 594 78 590 q 108 599 97 597 q 131 601 119 601 q 147 601 142 601 q 172 590 165 601 q 178 564 178 579 q 177 551 178 557 q 175 538 176 544 l 172 535 q 167 524 171 532 q 157 509 163 517 q 146 495 151 501 q 138 489 140 489 q 125 492 131 489 q 114 497 119 494 m 32 -90 q 40 -75 33 -86 q 53 -52 46 -64 q 68 -30 61 -40 q 76 -15 75 -19 q 86 8 83 -3 q 90 29 89 18 q 92 52 92 40 q 97 78 93 64 q 113 98 101 92 q 138 101 125 104 q 160 87 150 99 q 171 53 171 75 q 155 10 171 28 q 124 -28 139 -8 q 89 -67 107 -47 q 51 -100 71 -87 q 37 -103 44 -106 q 32 -90 29 -101 z "},"=":{"ha":554,"x_min":18,"x_max":513,"o":"m 472 467 q 445 469 458 467 q 418 471 432 471 q 389 468 403 471 q 360 465 375 465 q 316 468 338 465 q 272 471 294 471 l 207 469 q 165 465 199 469 q 97 460 132 461 q 42 465 65 460 q 18 488 18 471 q 21 501 18 493 q 27 518 24 510 q 35 532 31 526 q 42 538 39 538 q 87 547 65 538 q 132 560 108 557 q 146 561 138 561 q 199 563 174 561 q 253 564 225 564 q 299 560 265 564 q 367 553 332 557 q 429 544 401 549 q 460 538 457 540 q 463 533 464 535 q 463 525 463 531 q 470 518 463 519 q 488 516 478 517 q 505 514 497 515 q 513 507 513 513 l 511 497 q 498 476 511 486 q 472 467 485 467 m 472 300 q 445 302 458 300 q 418 304 432 304 q 389 301 403 304 q 360 299 375 299 q 316 301 338 299 q 272 304 294 304 l 207 303 q 165 299 199 303 q 97 293 132 294 q 42 298 65 293 q 18 321 18 303 q 21 335 18 326 q 27 351 24 343 q 35 365 31 360 q 42 371 39 371 q 87 381 65 371 q 132 393 108 390 q 146 394 138 394 q 199 396 174 394 q 253 397 225 397 q 299 394 265 397 q 367 386 332 390 q 429 378 401 382 q 460 371 457 374 q 463 366 464 368 q 463 358 463 364 q 470 351 463 353 q 488 349 478 350 q 505 347 497 349 q 513 340 513 346 l 511 331 q 498 310 511 319 q 472 300 485 300 z "},"\\":{"ha":558,"x_min":-46,"x_max":599,"o":"m 524 54 q 560 -16 543 19 q 596 -87 576 -51 q 597 -97 599 -93 q 590 -93 596 -100 q 579 -76 582 -82 q 571 -59 575 -69 q 560 -40 567 -49 q 547 -28 554 -32 q 528 -29 539 -24 l 519 -35 q 506 -26 514 -37 q 488 1 497 -14 q 471 28 479 17 q 457 38 463 40 q 449 33 450 35 q 442 35 449 31 q 422 65 439 38 q 381 131 404 92 q 329 218 357 171 q 276 309 301 265 q 231 388 250 353 q 203 436 211 422 q 169 497 190 458 q 123 578 147 536 q 77 658 99 619 q 43 718 56 696 q 36 731 39 725 q 31 743 33 736 q -5 826 13 783 q -43 907 -22 868 q -44 923 -46 913 q -37 944 -42 933 q -26 963 -32 954 q -15 975 -21 972 q 5 972 -7 979 q 30 947 17 964 q 57 907 43 931 q 85 857 71 883 q 125 781 100 828 q 174 688 150 733 q 218 606 199 642 q 242 563 238 569 l 300 454 q 326 407 310 436 q 361 348 343 378 q 397 290 379 318 q 424 243 414 261 q 447 192 436 218 q 469 143 457 167 q 497 99 482 119 q 524 54 511 78 z "},"+":{"ha":529,"x_min":18,"x_max":513,"o":"m 289 664 q 287 637 289 650 q 285 611 285 624 q 288 582 285 596 q 290 553 290 568 q 289 522 290 538 q 286 492 288 507 q 338 487 308 490 q 393 480 367 483 q 439 474 419 476 q 460 468 458 471 q 463 463 464 465 q 463 456 463 461 q 470 449 463 450 q 488 447 478 447 q 505 444 497 446 q 513 438 513 443 l 511 428 q 497 407 511 417 q 472 397 483 397 q 445 399 458 397 q 418 401 432 401 q 389 399 403 401 q 360 396 375 396 q 323 398 340 396 q 286 401 306 400 l 286 400 q 290 358 286 392 q 296 289 294 325 q 290 233 296 257 q 267 210 285 210 q 238 218 257 210 q 218 233 218 226 q 208 279 218 257 q 194 325 199 301 l 194 339 q 194 369 194 354 q 193 399 193 383 q 150 394 176 397 q 97 390 124 392 q 42 396 65 390 q 18 418 18 401 q 21 432 18 424 q 27 449 24 440 q 35 463 31 457 q 42 468 39 468 q 87 478 65 468 q 132 490 108 488 q 146 492 136 492 q 171 492 158 492 q 196 493 183 493 q 202 543 199 517 q 208 593 206 569 q 214 633 211 617 q 218 653 217 650 q 227 687 221 669 q 249 704 233 704 l 258 704 q 279 690 269 704 q 289 664 289 676 z "},"`":{"ha":269,"x_min":46,"x_max":231,"o":"m 226 786 q 216 772 231 775 q 194 774 201 769 q 151 801 175 785 q 108 836 126 818 q 73 869 92 853 q 50 911 54 885 q 58 953 46 939 q 86 969 69 967 q 119 966 103 972 q 142 946 136 960 q 188 863 164 897 q 226 786 211 829 z "},"|":{"ha":250,"x_min":76,"x_max":193,"o":"m 83 -171 q 85 -120 83 -146 q 88 -68 88 -94 q 85 -13 88 -40 q 82 42 82 14 q 83 90 82 56 q 83 169 83 125 q 85 265 83 214 q 86 360 86 315 q 87 439 86 404 q 88 488 88 474 l 88 611 q 86 663 88 619 q 83 761 85 706 q 78 872 81 817 q 76 961 76 928 q 77 1019 76 992 q 81 1067 78 1046 q 92 1100 85 1088 q 108 1113 99 1113 q 124 1108 114 1113 q 142 1096 133 1103 q 158 1081 151 1089 q 164 1067 164 1074 q 175 981 164 1022 q 190 894 186 939 q 191 881 190 888 q 192 867 192 874 q 192 794 192 842 q 192 696 192 747 q 193 597 193 644 q 193 525 193 550 q 192 453 193 508 q 188 324 190 397 q 181 169 185 250 q 175 18 178 88 q 169 -98 172 -51 q 164 -149 167 -144 q 159 -155 161 -156 q 150 -154 157 -154 q 142 -169 143 -154 q 139 -201 140 -183 q 136 -233 138 -219 q 128 -247 135 -247 l 118 -247 q 101 -255 106 -247 q 95 -273 96 -262 q 95 -294 94 -283 q 96 -314 96 -306 q 96 -323 96 -318 q 94 -332 96 -328 q 89 -339 92 -342 q 86 -331 86 -336 q 85 -251 86 -290 q 83 -171 83 -211 z "},"":{"ha":558,"x_min":-50,"x_max":594,"o":"m 25 54 q 52 99 38 78 q 78 143 67 119 q 102 192 92 167 q 125 243 113 218 q 151 290 135 261 q 187 348 168 318 q 222 407 206 378 q 249 454 239 436 l 307 563 q 331 606 311 569 q 374 688 350 642 q 424 781 399 733 q 464 857 449 828 q 492 907 478 883 q 519 947 506 931 q 544 972 532 964 q 564 975 556 979 q 574 963 568 972 q 585 944 581 954 q 592 923 590 933 q 592 907 594 913 q 553 826 569 868 q 518 743 536 783 l 506 718 q 472 658 493 696 q 426 578 450 619 q 380 497 401 536 q 346 436 358 458 q 318 388 338 422 q 273 309 299 353 q 219 218 247 265 q 168 131 192 171 q 127 65 144 92 q 107 35 110 38 q 99 33 100 31 q 92 38 99 35 q 78 28 86 40 q 60 1 69 17 q 43 -26 51 -14 q 29 -35 35 -37 l 21 -29 q 2 -28 10 -24 q -12 -41 -6 -32 q -22 -60 -18 -50 q -31 -76 -26 -71 q -42 -93 -33 -82 q -49 -97 -47 -100 q -47 -87 -50 -93 q -11 -16 -28 -51 q 25 54 6 19 z "},"[":{"ha":883,"x_min":28,"x_max":856,"o":"m 546 872 q 565 823 558 849 q 581 771 572 797 q 614 684 592 738 q 663 568 636 631 q 716 440 689 506 q 765 313 743 374 q 802 203 788 253 q 817 128 817 154 q 822 106 817 122 q 833 70 826 89 q 846 34 839 51 q 856 8 853 17 l 833 0 q 822 17 826 8 q 807 32 817 26 l 800 28 q 729 158 757 86 q 724 169 726 164 q 718 179 721 174 q 700 229 713 206 q 676 276 688 253 q 587 485 631 381 q 507 697 543 589 q 492 736 500 717 q 474 774 485 756 q 411 653 435 718 q 360 528 388 589 q 316 445 340 485 q 281 360 292 406 q 260 325 268 343 q 243 288 251 307 q 167 151 210 217 q 72 24 124 85 l 65 21 l 60 22 q 46 18 53 22 q 33 10 39 14 l 29 8 l 32 22 l 29 25 l 28 31 q 38 53 32 40 q 51 81 44 67 q 62 108 57 94 q 67 131 67 121 q 78 156 67 132 q 110 219 90 179 q 156 313 131 260 q 207 425 181 367 q 258 544 233 483 q 301 663 282 606 q 341 763 319 714 q 378 836 363 813 q 392 858 383 843 q 412 891 401 874 q 433 926 422 908 q 451 956 443 943 q 465 970 460 967 q 485 969 469 974 q 507 951 501 965 q 519 921 513 936 q 532 897 525 908 q 546 872 539 885 z "},"]":{"ha":883,"x_min":28,"x_max":856,"o":"m 546 872 q 565 823 558 849 q 581 771 572 797 q 614 684 592 738 q 663 568 636 631 q 716 440 689 506 q 765 313 743 374 q 802 203 788 253 q 817 128 817 154 q 822 106 817 122 q 833 70 826 89 q 846 34 839 51 q 856 8 853 17 l 833 0 q 822 17 826 8 q 807 32 817 26 l 800 28 q 729 158 757 86 q 724 169 726 164 q 718 179 721 174 q 700 229 713 206 q 676 276 688 253 q 587 485 631 381 q 507 697 543 589 q 492 736 500 717 q 474 774 485 756 q 411 653 435 718 q 360 528 388 589 q 316 445 340 485 q 281 360 292 406 q 260 325 268 343 q 243 288 251 307 q 167 151 210 217 q 72 24 124 85 l 65 21 l 60 22 q 46 18 53 22 q 33 10 39 14 l 29 8 l 32 22 l 29 25 l 28 31 q 38 53 32 40 q 51 81 44 67 q 62 108 57 94 q 67 131 67 121 q 78 156 67 132 q 110 219 90 179 q 156 313 131 260 q 207 425 181 367 q 258 544 233 483 q 301 663 282 606 q 341 763 319 714 q 378 836 363 813 q 392 858 383 843 q 412 891 401 874 q 433 926 422 908 q 451 956 443 943 q 465 970 460 967 q 485 969 469 974 q 507 951 501 965 q 519 921 513 936 q 532 897 525 908 q 546 872 539 885 m 439 351 q 446 352 442 351 q 451 353 450 353 l 493 353 l 497 351 q 500 350 500 350 l 503 350 l 504 349 q 507 346 507 349 l 508 346 q 510 343 510 346 l 511 342 q 513 339 513 342 q 514 336 514 338 q 517 329 517 333 l 517 328 q 518 325 518 325 l 518 315 l 518 308 l 518 296 l 518 293 q 517 290 517 293 q 516 285 517 289 q 514 281 515 282 q 511 278 514 278 l 511 278 q 505 267 508 275 q 500 257 501 260 q 497 252 499 256 q 493 246 494 249 q 489 238 493 244 q 482 229 485 232 q 481 226 482 228 q 479 225 481 226 l 475 221 l 474 219 l 467 219 q 460 222 463 219 l 457 224 q 455 224 456 224 q 453 225 454 225 l 450 226 q 447 228 450 228 q 438 236 444 231 q 428 243 431 242 l 414 257 q 411 260 414 260 l 411 267 q 409 278 410 268 q 408 292 408 289 q 407 294 407 294 q 407 297 407 296 q 404 304 407 301 l 403 307 l 403 310 l 401 311 q 399 315 399 314 l 397 318 l 394 321 q 392 322 393 321 q 390 324 392 324 l 390 328 q 393 331 393 328 q 396 333 394 332 l 397 338 q 401 342 401 342 q 405 343 403 342 q 408 344 407 344 l 411 346 l 414 346 q 417 348 414 347 q 422 349 419 349 l 424 349 q 426 350 426 350 l 432 350 q 436 351 435 350 q 439 351 438 351 z "},"{":{"ha":747,"x_min":56,"x_max":751,"o":"m 326 603 q 359 599 340 603 q 396 594 378 594 q 449 578 421 594 q 503 536 478 561 q 547 482 528 511 q 571 428 565 453 q 659 255 624 349 q 722 71 694 161 q 739 36 726 57 q 751 4 751 15 q 747 -12 751 -3 q 735 -26 742 -21 q 717 -10 722 -19 q 692 8 706 -4 q 672 29 679 19 q 642 74 660 44 q 605 138 625 103 q 565 213 585 174 q 529 288 546 251 q 510 338 524 301 q 479 415 496 375 q 445 485 463 454 q 414 515 428 515 q 383 513 399 515 q 351 510 368 510 q 285 485 318 510 q 226 422 253 461 q 183 334 200 383 q 167 236 167 285 q 185 156 167 185 q 234 112 204 126 q 303 94 264 97 q 385 90 343 90 q 449 97 417 90 q 514 104 481 104 q 529 101 518 104 q 540 103 532 103 q 550 93 550 103 q 534 72 550 76 q 504 67 518 67 q 479 60 490 67 q 457 46 468 53 q 422 34 440 36 q 385 32 404 32 q 365 27 374 32 q 347 22 357 22 q 247 29 299 22 q 153 57 196 36 q 83 117 110 78 q 56 221 56 156 q 83 382 56 304 q 171 518 111 460 q 240 576 204 550 q 326 603 276 603 z "},"}":{"ha":747,"x_min":56,"x_max":751,"o":"m 326 603 q 359 599 340 603 q 396 594 378 594 q 449 578 421 594 q 503 536 478 561 q 547 482 528 511 q 571 428 565 453 q 659 255 624 349 q 722 71 694 161 q 739 36 726 57 q 751 4 751 15 q 747 -12 751 -3 q 735 -26 742 -21 q 717 -10 722 -19 q 692 8 706 -4 q 672 29 679 19 q 642 74 660 44 q 605 138 625 103 q 565 213 585 174 q 529 288 546 251 q 510 338 524 301 q 479 415 496 375 q 445 485 463 454 q 414 515 428 515 q 383 513 399 515 q 351 510 368 510 q 285 485 318 510 q 226 422 253 461 q 183 334 200 383 q 167 236 167 285 q 185 156 167 185 q 234 112 204 126 q 303 94 264 97 q 385 90 343 90 q 449 97 417 90 q 514 104 481 104 q 529 101 518 104 q 540 103 532 103 q 550 93 550 103 q 534 72 550 76 q 504 67 518 67 q 479 60 490 67 q 457 46 468 53 q 422 34 440 36 q 385 32 404 32 q 365 27 374 32 q 347 22 357 22 q 247 29 299 22 q 153 57 196 36 q 83 117 110 78 q 56 221 56 156 q 83 382 56 304 q 171 518 111 460 q 240 576 204 550 q 326 603 276 603 m 342 351 q 349 352 344 351 q 354 353 353 353 l 396 353 l 400 351 q 403 350 403 350 l 406 350 l 407 349 q 410 346 410 349 l 411 346 q 413 343 413 346 l 414 342 q 415 339 415 342 q 417 336 417 338 q 419 329 419 333 l 419 328 q 421 325 421 325 l 421 315 l 421 308 l 421 296 l 421 293 q 419 290 419 293 q 419 285 419 289 q 417 281 418 282 q 414 278 417 278 l 414 278 q 408 267 411 275 q 403 257 404 260 q 399 252 401 256 q 396 246 397 249 q 392 238 396 244 q 385 229 388 232 q 383 226 385 228 q 382 225 383 226 l 378 221 l 376 219 l 369 219 q 363 222 365 219 l 360 224 q 358 224 358 224 q 356 225 357 225 l 353 226 q 350 228 353 228 q 340 236 347 231 q 331 243 333 242 l 317 257 q 314 260 317 260 l 314 267 q 312 278 313 268 q 311 292 311 289 q 310 294 310 294 q 310 297 310 296 q 307 304 310 301 l 306 307 l 306 310 l 304 311 q 301 315 301 314 l 300 318 l 297 321 q 295 322 296 321 q 293 324 294 324 l 293 328 q 296 331 296 328 q 299 333 297 332 l 300 338 q 304 342 304 342 q 308 343 306 342 q 311 344 310 344 l 314 346 l 317 346 q 319 348 317 347 q 325 349 322 349 l 326 349 q 329 350 329 350 l 335 350 q 339 351 338 350 q 342 351 340 351 z "},"<":{"ha":794,"x_min":61,"x_max":738,"o":"m 443 972 q 507 963 481 972 q 563 935 533 954 q 589 917 574 929 q 619 890 604 904 q 644 859 633 875 q 654 829 654 843 q 650 814 654 822 q 636 806 646 806 q 619 812 628 806 q 601 826 611 818 q 581 841 592 835 q 557 847 569 847 q 372 815 461 847 q 206 731 283 783 q 160 660 160 697 q 177 607 160 629 q 220 569 194 585 q 274 541 246 553 q 325 521 303 529 q 360 510 340 515 q 402 501 381 506 q 444 491 424 496 q 479 482 464 486 q 559 460 521 469 q 630 438 597 451 q 687 403 663 425 q 724 346 711 382 q 738 263 738 307 q 732 213 738 236 q 713 171 726 189 q 651 113 692 142 q 565 59 611 83 q 471 20 518 35 q 388 6 424 6 q 340 3 364 6 q 292 0 315 0 q 242 3 279 0 q 164 13 204 6 q 92 35 124 21 q 61 72 61 49 q 71 85 61 83 q 85 88 81 88 q 113 81 100 88 q 142 74 126 74 q 181 78 161 74 q 222 82 200 82 q 324 85 267 82 q 438 106 382 89 q 489 128 454 111 q 558 167 524 144 q 619 214 593 189 q 644 260 644 239 q 627 301 644 283 q 589 329 610 319 q 478 374 535 356 q 363 410 421 392 q 303 428 328 421 q 258 444 278 436 q 223 460 239 451 q 192 481 207 468 q 153 513 174 496 q 115 550 132 529 q 85 598 97 571 q 69 661 72 625 q 99 792 65 735 q 188 890 132 850 q 311 951 243 931 q 443 972 379 972 z "}}}
